<svg id="Capa_1" data-name="Capa 1" xmlns="http://www.w3.org/2000/svg" viewBox="0 0 30.55 29.72"><defs><style>.cls-1,.cls-2{fill:none;stroke:#fff;stroke-width:1.13px;}.cls-1{stroke-miterlimit:10;}.cls-2{stroke-linecap:round;stroke-linejoin:round;}</style></defs><path class="cls-1" d="M2.57,8.76H5.39a0,0,0,0,1,0,0v8.42a0,0,0,0,1,0,0H2.57a2,2,0,0,1-2-2V10.74A2,2,0,0,1,2.57,8.76Z"/><path class="cls-1" d="M27.15,8.76H30a0,0,0,0,1,0,0v8.42a0,0,0,0,1,0,0H27.15a2,2,0,0,1-2-2V10.74A2,2,0,0,1,27.15,8.76Z" transform="translate(55.15 25.94) rotate(180)"/><path class="cls-1" d="M5.39,6.32V18.93A1.77,1.77,0,0,0,7.16,20.7h.77v6.69l7-6.69h8.5a1.77,1.77,0,0,0,1.77-1.77V6.32A1.77,1.77,0,0,0,23.4,4.55H7.16A1.77,1.77,0,0,0,5.39,6.32Z"/><path class="cls-1" d="M3.13,8.76V4.17A3.6,3.6,0,0,1,6.74.57H24a3.61,3.61,0,0,1,3.61,3.6V8.76"/><path class="cls-1" d="M27.89,17.18v6.3a3.6,3.6,0,0,1-3.61,3.6H19.89"/><rect class="cls-1" x="14.25" y="25.02" width="5.64" height="4.13" rx="2.07"/><path class="cls-2" d="M11,14.35a4.47,4.47,0,0,0,8.6,0"/></svg>