<svg id="Capa_1" data-name="Capa 1" xmlns="http://www.w3.org/2000/svg" viewBox="0 0 21.21 28.28"><defs><style>.cls-1{fill:#0f98a9;fill-rule:evenodd;}.cls-2{fill:none;}</style></defs><path class="cls-1" d="M8.92,15.82a7.9,7.9,0,0,1-2.4-4.52.64.64,0,0,1,.19-.56L8.23,9.21a.67.67,0,0,0,.1-.84L5.9,4.6A.68.68,0,0,0,5,4.35L1.12,6.19a.67.67,0,0,0-.37.67,18.85,18.85,0,0,0,5.73,11.4A18.79,18.79,0,0,0,17.88,24a.69.69,0,0,0,.68-.37l1.83-3.9a.68.68,0,0,0-.25-.88l-3.76-2.42a.69.69,0,0,0-.85.09L14,18a.67.67,0,0,1-.57.19,8,8,0,0,1-4.52-2.41Z"/><polygon class="cls-2" points="21.17 28.28 10.61 17.44 0.04 28.28 0.04 0 21.17 0 21.17 28.28"/></svg>