<svg id="Capa_1" data-name="Capa 1" xmlns="http://www.w3.org/2000/svg" xmlns:xlink="http://www.w3.org/1999/xlink" viewBox="0 0 155.91 155.91"><defs><style>.cls-1{fill:url(#Degradado_sin_nombre_59);}.cls-2{fill:url(#Degradado_sin_nombre_59-2);}.cls-3{opacity:0.2;fill:url(#Degradado_sin_nombre_77);}.cls-4,.cls-6{fill:none;}.cls-5{fill:#fff;}.cls-6{stroke:#fff;stroke-linecap:round;stroke-linejoin:round;stroke-width:2.27px;}</style><linearGradient id="Degradado_sin_nombre_59" y1="77.95" x2="155.91" y2="77.95" gradientUnits="userSpaceOnUse"><stop offset="0" stop-color="#4563ab"/><stop offset="1" stop-color="#3a5399"/></linearGradient><linearGradient id="Degradado_sin_nombre_59-2" x1="143.95" y1="140.18" x2="21.7" y2="24.92" gradientTransform="translate(0 155.91) rotate(-90)" xlink:href="#Degradado_sin_nombre_59"/><linearGradient id="Degradado_sin_nombre_77" x1="21.6" y1="21" x2="125.67" y2="126.18" gradientUnits="userSpaceOnUse"><stop offset="0" stop-color="#fff"/><stop offset="0.01" stop-color="#fff" stop-opacity="0.96"/><stop offset="0.05" stop-color="#fff" stop-opacity="0.78"/><stop offset="0.09" stop-color="#fff" stop-opacity="0.61"/><stop offset="0.14" stop-color="#fff" stop-opacity="0.47"/><stop offset="0.2" stop-color="#fff" stop-opacity="0.34"/><stop offset="0.25" stop-color="#fff" stop-opacity="0.23"/><stop offset="0.32" stop-color="#fff" stop-opacity="0.15"/><stop offset="0.4" stop-color="#fff" stop-opacity="0.08"/><stop offset="0.49" stop-color="#fff" stop-opacity="0.03"/><stop offset="0.63" stop-color="#fff" stop-opacity="0.01"/><stop offset="1" stop-color="#fff" stop-opacity="0"/></linearGradient></defs><rect class="cls-1" width="155.91" height="155.91" rx="14.17"/><rect class="cls-2" x="7.09" y="7.09" width="141.73" height="141.73" rx="7.09" transform="translate(155.91 0) rotate(90)"/><path class="cls-3" d="M141.73,7.09H14.17a7.09,7.09,0,0,0-7.08,7.08V141.73a7.1,7.1,0,0,0,7.08,7.09H141.73a7.1,7.1,0,0,0,7.09-7.09V14.17A7.1,7.1,0,0,0,141.73,7.09ZM148,142.24a5.73,5.73,0,0,1-5.72,5.72H13.66A5.72,5.72,0,0,1,8,142.24V13.66A5.71,5.71,0,0,1,13.66,8H142.24A5.72,5.72,0,0,1,148,13.66Z"/><circle class="cls-4" cx="77.95" cy="77.95" r="76.54"/><path class="cls-5" d="M93.16,64.69A3.32,3.32,0,0,0,92,63.1a5.1,5.1,0,0,0-1.7-.8h0l-2.19-.65h0a3.88,3.88,0,0,1-.79-.3,1.62,1.62,0,0,1-.29-.19.48.48,0,0,1-.15-.22,1.14,1.14,0,0,1-.05-.39,1,1,0,0,1,.1-.45,1.19,1.19,0,0,1,.55-.47,2.32,2.32,0,0,1,1-.21,2.8,2.8,0,0,1,1.32.3,2,2,0,0,1,.8.83.86.86,0,0,0,1.1.38l1-.41a.88.88,0,0,0,.45-1.15,4.16,4.16,0,0,0-1.65-1.9,5.08,5.08,0,0,0-1.61-.62V55.62a.86.86,0,0,0-.25-.61.89.89,0,0,0-.62-.25h-.9a.86.86,0,0,0-.61.25.83.83,0,0,0-.26.61v1.22a4.5,4.5,0,0,0-2.06,1A3.76,3.76,0,0,0,84,60.63a4.49,4.49,0,0,0,.16,1.22,3.17,3.17,0,0,0,1,1.52,4.74,4.74,0,0,0,1.78.9h0l1.16.34c.44.12.89.24,1.1.31h0a4,4,0,0,1,.62.24,1.46,1.46,0,0,1,.56.42,1.58,1.58,0,0,1,.13.26,1.4,1.4,0,0,1,.05.4,1.06,1.06,0,0,1-.11.5,1.29,1.29,0,0,1-.63.55,2.85,2.85,0,0,1-1.29.25,2.91,2.91,0,0,1-1.61-.41A2.26,2.26,0,0,1,86,66a.87.87,0,0,0-1.09-.52l-1,.36a.86.86,0,0,0-.54,1.06,4.41,4.41,0,0,0,1.68,2.39,5.17,5.17,0,0,0,2.14.88v1.3a.85.85,0,0,0,.26.61.86.86,0,0,0,.61.25H89a.85.85,0,0,0,.87-.86V70.11A4.78,4.78,0,0,0,92.17,69a3.79,3.79,0,0,0,1.23-2.82A4.2,4.2,0,0,0,93.16,64.69Z"/><path class="cls-6" d="M68.56,48.75H115a1.49,1.49,0,0,1,1.48,1.49v27.6A1.48,1.48,0,0,1,115,79.32H61.59a1.48,1.48,0,0,1-1.48-1.48V55.54"/><path class="cls-6" d="M109.26,101.33l-6.66-6.15a14,14,0,0,0-9.51-3.73H71.55a3.89,3.89,0,0,0-3.89,3.9h0a3.89,3.89,0,0,0,3.89,3.89h8.63"/><path class="cls-6" d="M98.33,112.41,95.69,110a5.38,5.38,0,0,0-3.6-1.38H74.83a10.89,10.89,0,0,1-7.72-3.2L51.56,89.89a4.35,4.35,0,0,1-.06-6.09h0a4.35,4.35,0,0,1,6.12-.14l10.47,9.9"/><polyline class="cls-6" points="98.57 120.04 94.56 116.03 113.27 97.88 122.75 107.51"/><path class="cls-6" d="M51.88,51.92h0a3.26,3.26,0,0,0,3.26,3.26h5.37a5.61,5.61,0,0,1,3.75,1.42l4.41,3.92a4.12,4.12,0,0,0,5.8-.33h0a4.13,4.13,0,0,0-.17-5.68L62.89,43.23"/><path class="cls-6" d="M41.31,38.66H68.05a5.69,5.69,0,0,1,4.21,1.85l7.27,8"/><rect class="cls-6" x="33.16" y="35.87" width="6.9" height="27.45"/><path class="cls-6" d="M41.23,59.91h6.24A2.75,2.75,0,0,1,49.68,61l1,1.28a3.87,3.87,0,0,0,3.11,1.56H60.1"/><circle class="cls-6" cx="77.07" cy="64" r="0.79"/><circle class="cls-6" cx="99.52" cy="64" r="0.79"/></svg>