<svg id="Capa_1" data-name="Capa 1" xmlns="http://www.w3.org/2000/svg" viewBox="0 0 64.95 64.95"><defs><style>.cls-1,.cls-2{fill:none;}.cls-2{stroke:#fff;stroke-linecap:round;stroke-linejoin:round;stroke-width:2.4px;}</style></defs><rect class="cls-1" width="64.95" height="64.95"/><path class="cls-2" d="M28.62,44.31H54.3a2.22,2.22,0,0,0,2.21-2.22V10.65A2.21,2.21,0,0,0,54.3,8.44H22.86a2.21,2.21,0,0,0-2.21,2.21V36.33"/><polyline class="cls-2" points="40.38 14.24 50.7 14.24 50.7 24.55"/><path class="cls-2" d="M18.05,38.93h-7.4a2.21,2.21,0,0,0-2.21,2.21V54.3a2.21,2.21,0,0,0,2.21,2.21H23.81A2.21,2.21,0,0,0,26,54.3V46.9"/><line class="cls-2" x1="13.83" y1="51.12" x2="50.65" y2="14.3"/></svg>