<?xml version="1.0" encoding="utf-8"?>
<!-- Generator: Adobe Illustrator 26.0.1, SVG Export Plug-In . SVG Version: 6.00 Build 0)  -->
<svg version="1.1" id="Capa_1" xmlns="http://www.w3.org/2000/svg" xmlns:xlink="http://www.w3.org/1999/xlink" x="0px" y="0px"
	 viewBox="0 0 60.1 60.1" style="enable-background:new 0 0 60.1 60.1;" xml:space="preserve">
<style type="text/css">
	.st0{fill:#FFFFFF;}
</style>
<g>
	<g id="Capa_1_00000173159758691591210280000014940292647526993300_">
		<path class="st0" d="M41,22.2L37.1,26l-6.2,5.9L30,32.7l-3.3-3.1l-6.4-5.9c-0.5-0.4-1-0.9-1.5-1.4c-0.9-0.8-2.2,0.5-1.3,1.3l4,3.7
			l6.4,5.9l1.5,1.4c0.4,0.4,1,0.4,1.3,0l3.9-3.7l6.2-5.9l1.5-1.4C43.2,22.7,41.9,21.4,41,22.2z M30,0C13.4,0,0,13.4,0,30
			s13.4,30,30,30s30-13.4,30-30l0,0C60.1,13.4,46.6,0,30,0z M45.8,38.1c0,2.2-1.7,3.9-3.9,3.9H18.2c-2.1,0-3.9-1.8-3.9-3.9V22
			c0-2.2,1.7-3.9,3.9-3.9h23.7c2.2,0,3.9,1.7,3.9,3.9l0,0C45.8,22,45.8,38.1,45.8,38.1z"/>
	</g>
</g>
</svg>
