<svg id="Capa_1" data-name="Capa 1" xmlns="http://www.w3.org/2000/svg" viewBox="0 0 64.95 64.95"><defs><style>.cls-1,.cls-2{fill:none;}.cls-2{stroke:#fff;stroke-linecap:round;stroke-linejoin:round;stroke-width:2.4px;}</style></defs><rect class="cls-1" width="64.95" height="64.95"/><circle class="cls-2" cx="22.43" cy="13.5" r="6.01"/><path class="cls-2" d="M16.42,43.72h-.54a3.83,3.83,0,0,1-3.83-3.83V26.47a3.82,3.82,0,0,1,3.83-3.83H29a3.82,3.82,0,0,1,3.83,3.83V39.89A3.83,3.83,0,0,1,29,43.72h-.54"/><line class="cls-2" x1="22.43" y1="44.66" x2="22.43" y2="57.46"/><line class="cls-2" x1="16.42" y1="31.8" x2="16.42" y2="57.46"/><line class="cls-2" x1="28.44" y1="31.8" x2="28.44" y2="57.46"/><circle class="cls-2" cx="42.52" cy="13.5" r="6.01"/><path class="cls-2" d="M36,22.64H49.08a3.82,3.82,0,0,1,3.82,3.83V39.89a3.83,3.83,0,0,1-3.82,3.83"/><line class="cls-2" x1="42.52" y1="44.66" x2="42.52" y2="57.46"/><line class="cls-2" x1="36.51" y1="31.8" x2="36.51" y2="57.46"/><line class="cls-2" x1="48.53" y1="31.8" x2="48.53" y2="57.46"/></svg>