<svg id="Capa_1" data-name="Capa 1" xmlns="http://www.w3.org/2000/svg" viewBox="0 0 64.95 64.95"><defs><style>.cls-1,.cls-2{fill:none;}.cls-2{stroke:#fff;stroke-linecap:round;stroke-linejoin:round;stroke-width:2.4px;}</style></defs><rect class="cls-1" width="64.95" height="64.95"/><path class="cls-2" d="M28.77,23.05c.12-.37.3-.68.42-1.05,0-.16.17-.36.1-.53l-.15-.24L29.06,21a4.09,4.09,0,0,0-.25-.46l-.14-.17-.11-.1,0-.11c-.1-.09-.27,0-.39,0s-.33-.06-.49-.07a1.43,1.43,0,0,1-.42-.09.47.47,0,0,1-.2-.48l.07-.25c0-.11,0-.22,0-.33.12-.39.27-.78.4-1.17,0-.1.08-.21.11-.31v-.22l.08-.24c.06-.17.08-.18.24-.26a1.25,1.25,0,0,0,.24-.16c.13-.08.15-.06.22-.24s.1-.27.13-.4a2.64,2.64,0,0,0,0-.29c0-.78,1-.44,1.49-.54a1.64,1.64,0,0,0,.41-.11c.09-.06.1-.12.13-.22s.12-.59.26-.71a.83.83,0,0,1,.45-.11c.17,0,.32.15.48.15a1.4,1.4,0,0,0,.34-.08c.21,0,.2-.13.22-.34a2,2,0,0,0-.19-1.12c-.2-.34-.3-.74-.49-1.09s-.49-.65-.42-1a.74.74,0,0,1,.6-.51c.3,0,.62.13.93.11a2,2,0,0,0,.33-.09,1.62,1.62,0,0,0,.87-.43,1.15,1.15,0,0,1,.22-.22l.24-.15c.2-.13.44-.13.53-.37a2.35,2.35,0,0,1,.15-.47,1.58,1.58,0,0,1,.81-.39,1,1,0,0,1,.3,0,2.45,2.45,0,0,0,.37-.08,3.14,3.14,0,0,0,1-.58A2.8,2.8,0,0,0,38,6.92c.12-.16.17-.37.28-.54s.22-.55.46-.75A3.38,3.38,0,0,1,39,5.36l.23-.1c.3-.15.44-.52.74-.69a1.8,1.8,0,0,0,.39-.27,1.1,1.1,0,0,1,.31-.22,1.2,1.2,0,0,1,.85.08c.27.07.55.11.81.2L53.73,17.18c-.09.26-.14.5-.22.76a1.15,1.15,0,0,1-.26.4c-.11.11-.17.26-.29.37s-.16.18-.25.28a1.92,1.92,0,0,0-.36.44c-.09.17-.21.32-.31.48l-.18.25a3.87,3.87,0,0,1-.35.45,1.53,1.53,0,0,0-.26.31l-.15.17-.07.22c-.08.14-.22.21-.31.33l-.13.13-.07.08-.16.1a1.29,1.29,0,0,0-.43.44c-.11.18-.26.3-.37.48s-.1.19-.16.28l-.14.27-.15.2-.16.23a1.42,1.42,0,0,1-.37.32l-.36.19-.42.23c-.27.12-.63.34-.92.19l-.05-.15L47,24.4a1.85,1.85,0,0,1,.41-.47l.18-.16.2-.2.07-.21-.09-.11-.31-.11a.75.75,0,0,0-.39.19l-.16.2a1,1,0,0,1-.28.16A3.37,3.37,0,0,0,46,24l-.18.13a2.2,2.2,0,0,1-.31.15.57.57,0,0,0-.26.25,5.45,5.45,0,0,0-.22.79.92.92,0,0,1-.14.32c-.1.12-.32.15-.45.23l-.48.23a2.46,2.46,0,0,0-.39.22c-.11.09-.25.13-.33.25a1.21,1.21,0,0,0-.16.45c0,.09,0,.2,0,.29l0,.22,0,.07,0,.3,0,.24.06.26.08.11.2.27A1.21,1.21,0,0,0,44,29a3.85,3.85,0,0,0,.49.07c.22,0,.44.11.66.14a1.53,1.53,0,0,1,.9.66,1.24,1.24,0,0,0,.41.3l.19.25.15.23c0,.11,0,.24.14.33L47,31l0,.26,0,.25a5.88,5.88,0,0,1,.23.71,1.36,1.36,0,0,1-.12.47,3.62,3.62,0,0,1-.2.55,7.48,7.48,0,0,1-.69,1.1c-.63.84-1.4,1.57-2,2.41-.24.31-.43.67-.64,1s-.5.85-.75,1.29a5,5,0,0,0-.44,1,3.05,3.05,0,0,1-.83,1.2,2.66,2.66,0,0,0-.63.71,2.72,2.72,0,0,1-.18.44,5.12,5.12,0,0,1-.4.52c-.26.33-.5.68-.76,1a7.06,7.06,0,0,0-.72,1c-.35.65-.33,1.64-1,2.12-.12.09-.27.14-.4.22s-.18.17-.3.25-.52.24-.77.4-.35.12-.52.23a5.19,5.19,0,0,0-.46.36A1.55,1.55,0,0,0,35,49a3.79,3.79,0,0,0-.26.58l-.07.23c0,.1.05.17,0,.28a3.45,3.45,0,0,1-.22.64l.23-.07c-.14-.23-.44.32-.48.43a7.19,7.19,0,0,1-.37.86,1.87,1.87,0,0,1-.47.46,2.72,2.72,0,0,1-.42.34,4.16,4.16,0,0,1-1.07.64l-1.6.55a5.87,5.87,0,0,1-.83.19c-.52.12-1,.12-1.55.26a5.79,5.79,0,0,0-.86.29c-.22.1-.37.28-.59.38l-.33.17c-.27.14-.43.39-.7.54a2.9,2.9,0,0,0-.49.35,1.69,1.69,0,0,0-.28.32,1.35,1.35,0,0,1-.17.34,1.28,1.28,0,0,1-.28.29c-.14.17-.13.41-.34.54s-.08,0-.19.15-.18.25-.26.38l-.13.19-.14.22c-.1.1-.37.11-.49.17a.6.6,0,0,1-.23.06,1.92,1.92,0,0,1-.31-.11c-.18,0-.2,0-.34.18a2,2,0,0,0-.33.74c-.1.28-.26.73-.6.76s-.34-.05-.64.1a2.08,2.08,0,0,1-.55.29,2.73,2.73,0,0,0-.38,0,6,6,0,0,1-.85.15,1.17,1.17,0,0,1-.38,0,5.22,5.22,0,0,1-.57-.07c-.24-.07-.4-.11-.43-.37a1.87,1.87,0,0,1,.13-.81,1.55,1.55,0,0,1,.37-.51,4.9,4.9,0,0,1,.79-.72c.5-.29,1-.59,1.51-.93.12-.09.22-.21.33-.31a2.21,2.21,0,0,0,.32-.29,1.77,1.77,0,0,0,.21-.49.87.87,0,0,0,.09-.55,3.14,3.14,0,0,0-.08-.4,1.55,1.55,0,0,0-.47-.52,2.12,2.12,0,0,0-.56-.29,11.64,11.64,0,0,0-1.15-.34l-.35-.1c-.24-.21-.05-.59-.11-.86s-.2-.28-.39-.34-.67-.19-.86,0-.15.73-.38.66-.25-.46-.25-.61,0-.34,0-.49a2.53,2.53,0,0,1,.23-.8c.05-.14.08-.17,0-.3a.6.6,0,0,0-.27-.2,2.57,2.57,0,0,1-.41-.26,1,1,0,0,1-.27-.47c-.08-.21-.14-.27,0-.47a1.64,1.64,0,0,0-1.11-.41c-.29,0-.31-.1-.33-.37a1.78,1.78,0,0,1,.16-.66c.08-.26-.1-.29-.29-.46-.41-.39-.28-1.08-.42-1.58a1.59,1.59,0,0,0-.41-.74,5.62,5.62,0,0,1-.44-.41,4.26,4.26,0,0,1-.7-.94c-.15-.32-.49-.51-.64-.83a.28.28,0,0,1,.08-.37H12l.12-.31a1.61,1.61,0,0,1,.26-.66.81.81,0,0,1,.33-.21c.14-.05.36-.05.47-.16a1.16,1.16,0,0,0,.2-.77.8.8,0,0,0-.18-.54c-.2-.25-.58-.71-.31-1a4.19,4.19,0,0,1,.75-.56,5.51,5.51,0,0,1,.73-.45.73.73,0,0,0,.25-.15,3.06,3.06,0,0,0,.32-.3c.08-.11.12-.27.19-.39a.89.89,0,0,1,.34-.3c.1-.06.19-.15.29-.2s.32-.08.46-.14.4-.26.61-.37a1.05,1.05,0,0,0,.29-.17c.08-.08.09-.12.2-.17s.25,0,.37-.08a3.18,3.18,0,0,1,.53-.14,1.19,1.19,0,0,1,.62,0,3.08,3.08,0,0,0,.9.11l.7,0a1.19,1.19,0,0,0,.27-.07,2.44,2.44,0,0,1,.54,0,2.26,2.26,0,0,1,.37,0c.11,0,.21.07.31.08.81.06.93-.93,1.14-1.51.06-.17.1-.18.3-.21a2.41,2.41,0,0,0,.48-.12l.19-.07a1.87,1.87,0,0,0,.7-.19q.27-.2.54-.36c.28-.18.54-.5.88-.53s.47,0,.71-.06a2.24,2.24,0,0,0,.5-.16,5.68,5.68,0,0,1,1.37-.1c.22,0,.44,0,.66.05h.26l.18-.2a2.15,2.15,0,0,1,1.08-.42c.33,0,.88.31,1.16,0a1.46,1.46,0,0,0,.23-.73c0-.23-.21-.39-.33-.57a6.05,6.05,0,0,0-.32-.55,6.76,6.76,0,0,0-.52-.55,1.9,1.9,0,0,1-.33-.93,3.32,3.32,0,0,0-.26-1c-.09-.13-.26-.16-.35-.29s-.24-.46-.4-.67-.18-.18-.15-.32.12-.24.15-.36a1.88,1.88,0,0,0-.08-.78,1.06,1.06,0,0,0-.18-.55c-.27-.26-.64-.41-.9-.71l-.17-.17c-.06-.07-.22-.41-.13-.5"/></svg>