<svg id="Capa_1" data-name="Capa 1" xmlns="http://www.w3.org/2000/svg" xmlns:xlink="http://www.w3.org/1999/xlink" viewBox="0 0 155.91 155.91"><defs><style>.cls-1{fill:url(#Degradado_sin_nombre_59);}.cls-2{fill:url(#Degradado_sin_nombre_59-2);}.cls-3{opacity:0.2;fill:url(#Degradado_sin_nombre_77);}.cls-4,.cls-5,.cls-6{fill:none;}.cls-5,.cls-6{stroke:#fff;stroke-linecap:round;stroke-linejoin:round;}.cls-5{stroke-width:2.06px;}.cls-6{stroke-width:2.27px;}</style><linearGradient id="Degradado_sin_nombre_59" y1="77.95" x2="155.91" y2="77.95" gradientUnits="userSpaceOnUse"><stop offset="0" stop-color="#4563ab"/><stop offset="1" stop-color="#3a5399"/></linearGradient><linearGradient id="Degradado_sin_nombre_59-2" x1="143.95" y1="140.18" x2="21.7" y2="24.92" gradientTransform="translate(0 155.91) rotate(-90)" xlink:href="#Degradado_sin_nombre_59"/><linearGradient id="Degradado_sin_nombre_77" x1="21.6" y1="21" x2="125.67" y2="126.18" gradientUnits="userSpaceOnUse"><stop offset="0" stop-color="#fff"/><stop offset="0.01" stop-color="#fff" stop-opacity="0.96"/><stop offset="0.05" stop-color="#fff" stop-opacity="0.78"/><stop offset="0.09" stop-color="#fff" stop-opacity="0.61"/><stop offset="0.14" stop-color="#fff" stop-opacity="0.47"/><stop offset="0.2" stop-color="#fff" stop-opacity="0.34"/><stop offset="0.25" stop-color="#fff" stop-opacity="0.23"/><stop offset="0.32" stop-color="#fff" stop-opacity="0.15"/><stop offset="0.4" stop-color="#fff" stop-opacity="0.08"/><stop offset="0.49" stop-color="#fff" stop-opacity="0.03"/><stop offset="0.63" stop-color="#fff" stop-opacity="0.01"/><stop offset="1" stop-color="#fff" stop-opacity="0"/></linearGradient></defs><rect class="cls-1" width="155.91" height="155.91" rx="14.17"/><rect class="cls-2" x="7.09" y="7.09" width="141.73" height="141.73" rx="7.09" transform="translate(155.91 0) rotate(90)"/><path class="cls-3" d="M141.73,7.09H14.17a7.09,7.09,0,0,0-7.08,7.08V141.73a7.1,7.1,0,0,0,7.08,7.09H141.73a7.1,7.1,0,0,0,7.09-7.09V14.17A7.1,7.1,0,0,0,141.73,7.09ZM148,142.24a5.73,5.73,0,0,1-5.72,5.72H13.66A5.72,5.72,0,0,1,8,142.24V13.66A5.71,5.71,0,0,1,13.66,8H142.24A5.72,5.72,0,0,1,148,13.66Z"/><circle class="cls-4" cx="77.95" cy="77.95" r="76.54"/><rect class="cls-5" x="91.25" y="84.09" width="28.26" height="25.97" rx="3.26"/><line class="cls-5" x1="97.84" y1="82.41" x2="97.84" y2="87.06"/><line class="cls-5" x1="105.38" y1="82.41" x2="105.38" y2="87.06"/><line class="cls-5" x1="112.92" y1="82.41" x2="112.92" y2="87.06"/><line class="cls-5" x1="91.25" y1="90.52" x2="119.51" y2="90.52"/><path class="cls-6" d="M102.8,116.51H53.18A2.48,2.48,0,0,1,50.7,114V42a2.57,2.57,0,0,1,2.58-2.56H87.35a3.9,3.9,0,0,1,2.77,1.15l14.14,14.07a3.85,3.85,0,0,1,1.13,2.72V75"/><path class="cls-6" d="M88.81,39.39v13.1a3.34,3.34,0,0,0,3.37,3.32h13.2"/><line class="cls-6" x1="64.98" y1="59.17" x2="81.77" y2="59.17"/><line class="cls-6" x1="64.82" y1="68.56" x2="91.26" y2="68.56"/><line class="cls-6" x1="64.98" y1="77.95" x2="91.1" y2="77.95"/><line class="cls-6" x1="65.13" y1="87.34" x2="81.61" y2="87.34"/><line class="cls-6" x1="65.29" y1="96.73" x2="81.77" y2="96.73"/></svg>