<svg id="Capa_1" data-name="Capa 1" xmlns="http://www.w3.org/2000/svg" xmlns:xlink="http://www.w3.org/1999/xlink" viewBox="0 0 155.91 155.91"><defs><style>.cls-1{fill:url(#Degradado_sin_nombre_59);}.cls-2{fill:url(#Degradado_sin_nombre_59-2);}.cls-3{opacity:0.2;fill:url(#Degradado_sin_nombre_77);}.cls-4,.cls-5{fill:none;}.cls-5{stroke:#fff;stroke-linecap:round;stroke-linejoin:round;stroke-width:2.27px;}</style><linearGradient id="Degradado_sin_nombre_59" y1="77.95" x2="155.91" y2="77.95" gradientUnits="userSpaceOnUse"><stop offset="0" stop-color="#4563ab"/><stop offset="1" stop-color="#3a5399"/></linearGradient><linearGradient id="Degradado_sin_nombre_59-2" x1="143.95" y1="140.18" x2="21.7" y2="24.92" gradientTransform="translate(0 155.91) rotate(-90)" xlink:href="#Degradado_sin_nombre_59"/><linearGradient id="Degradado_sin_nombre_77" x1="21.6" y1="21" x2="125.67" y2="126.18" gradientUnits="userSpaceOnUse"><stop offset="0" stop-color="#fff"/><stop offset="0.01" stop-color="#fff" stop-opacity="0.96"/><stop offset="0.05" stop-color="#fff" stop-opacity="0.78"/><stop offset="0.09" stop-color="#fff" stop-opacity="0.61"/><stop offset="0.14" stop-color="#fff" stop-opacity="0.47"/><stop offset="0.2" stop-color="#fff" stop-opacity="0.34"/><stop offset="0.25" stop-color="#fff" stop-opacity="0.23"/><stop offset="0.32" stop-color="#fff" stop-opacity="0.15"/><stop offset="0.4" stop-color="#fff" stop-opacity="0.08"/><stop offset="0.49" stop-color="#fff" stop-opacity="0.03"/><stop offset="0.63" stop-color="#fff" stop-opacity="0.01"/><stop offset="1" stop-color="#fff" stop-opacity="0"/></linearGradient></defs><rect class="cls-1" width="155.91" height="155.91" rx="14.17"/><rect class="cls-2" x="7.09" y="7.09" width="141.73" height="141.73" rx="7.09" transform="translate(155.91 0) rotate(90)"/><path class="cls-3" d="M141.73,7.09H14.17a7.09,7.09,0,0,0-7.08,7.08V141.73a7.1,7.1,0,0,0,7.08,7.09H141.73a7.1,7.1,0,0,0,7.09-7.09V14.17A7.1,7.1,0,0,0,141.73,7.09ZM148,142.24a5.73,5.73,0,0,1-5.72,5.72H13.66A5.72,5.72,0,0,1,8,142.24V13.66A5.71,5.71,0,0,1,13.66,8H142.24A5.72,5.72,0,0,1,148,13.66Z"/><circle class="cls-4" cx="77.95" cy="77.95" r="76.54"/><path class="cls-5" d="M56.83,64.82V41.15a2.56,2.56,0,0,1,2.58-2.55H93.48a3.9,3.9,0,0,1,2.76,1.14l14.15,14.08a3.83,3.83,0,0,1,1.13,2.71v56.64a2.57,2.57,0,0,1-2.59,2.55H59.41"/><path class="cls-5" d="M94.94,38.6V51.7A3.35,3.35,0,0,0,98.31,55h13.2"/><line class="cls-5" x1="71.11" y1="58.38" x2="85.48" y2="58.38"/><line class="cls-5" x1="70.95" y1="67.77" x2="97.39" y2="67.77"/><line class="cls-5" x1="71.11" y1="77.16" x2="97.23" y2="77.16"/><path class="cls-5" d="M102.67,95.62a10.75,10.75,0,0,1,.15,1.8,11,11,0,1,1-5.58-9.58"/><polyline class="cls-5" points="85.48 96.87 90.18 101.57 105.14 86.88"/><path class="cls-5" d="M43.57,91.42A4.15,4.15,0,0,0,46.43,90a18.44,18.44,0,0,0,1.64-2.91c.42-.8.78-1.63,1.2-2.42,1.33-2.52,3.4-4.46,5.3-6.53,1.09-1.19,2.15-2.31,2.39-4a20,20,0,0,0,0-3.19c0-.71.19-1.31,1-1.36,2.68-.14,4.51,2.14,5.08,4.53a6.87,6.87,0,0,1-.4,4.62,19.37,19.37,0,0,1-2,3.15c-.66.86-1.44,2-1,3.11.55,1.32,2.12,1.39,3.35,1.32,1.77-.11,3.55-.25,5.33-.32,1.42-.06,3-.15,4.09.89,1.83,1.73.94,4.14-.54,5.73a3,3,0,0,1,1.2,2.71c-.17,1.83-2,2.13-2,2.76s.84,1.11.83,2.46c.1,1.95-2,3.07-2.16,3.29-.36.52,2.29,6.22-6.89,6.45-1,0-4.07,0-4.53,0a9.2,9.2,0,0,1-1,0,7.63,7.63,0,0,1-1.16-.21c-.44-.12-.85-.3-1.28-.44-1.47-.46-2.72-1.38-4.19-1.84A20.93,20.93,0,0,0,44,107.3"/><rect class="cls-5" x="33.77" y="89.59" width="9.42" height="21.65" rx="0.61"/></svg>