<svg id="Capa_1" data-name="Capa 1" xmlns="http://www.w3.org/2000/svg" viewBox="0 0 39.07 39.07"><defs><style>.cls-1{fill:#fff;}.cls-2,.cls-3{fill:none;stroke:#fff;stroke-linecap:round;stroke-linejoin:round;}.cls-2{stroke-width:1.52px;}.cls-3{stroke-width:1.06px;}</style></defs><path class="cls-1" d="M27.39,17.59a1.55,1.55,0,0,0-.91.06,2.46,2.46,0,0,0-.73.47h0l-.79.69h0a1.84,1.84,0,0,1-.31.23.48.48,0,0,1-.15.07.24.24,0,0,1-.12,0,.5.5,0,0,1-.17-.07.48.48,0,0,1-.14-.15.5.5,0,0,1-.05-.33,1,1,0,0,1,.16-.44,1.41,1.41,0,0,1,.44-.44,1,1,0,0,1,.52-.1.4.4,0,0,0,.42-.34l.07-.47a.35.35,0,0,0-.07-.3.35.35,0,0,0-.26-.16,2,2,0,0,0-1.15.17,2.59,2.59,0,0,0-.63.47l-.48-.3a.45.45,0,0,0-.3,0,.41.41,0,0,0-.25.18l-.22.35a.36.36,0,0,0-.05.3.39.39,0,0,0,.17.25l.48.3a1.94,1.94,0,0,0-.1,1.06,1.68,1.68,0,0,0,.77,1.13,2.17,2.17,0,0,0,.52.23,1.42,1.42,0,0,0,.84,0,2.29,2.29,0,0,0,.78-.47h0l.42-.37.39-.35h0a1.88,1.88,0,0,1,.24-.18.65.65,0,0,1,.3-.11h.14l.17.08a.64.64,0,0,1,.16.17.62.62,0,0,1,.06.38,1.38,1.38,0,0,1-.22.56,1.24,1.24,0,0,1-.56.52,1,1,0,0,1-.65.06.4.4,0,0,0-.48.3l-.11.48a.4.4,0,0,0,.28.48,2,2,0,0,0,1.34-.07,2.37,2.37,0,0,0,.87-.62l.5.32a.4.4,0,0,0,.3.06.39.39,0,0,0,.25-.18l.23-.35a.45.45,0,0,0,.05-.3.36.36,0,0,0-.18-.25l-.52-.33A2.08,2.08,0,0,0,28.8,19a1.58,1.58,0,0,0-.27-.67,1.66,1.66,0,0,0-.52-.5A1.86,1.86,0,0,0,27.39,17.59Z"/><path class="cls-2" d="M20.72,14.4,26.3,5.6a.68.68,0,0,1,.94-.21L38,12.18a.67.67,0,0,1,.21.94L25.31,33.47a.69.69,0,0,1-.95.21L14.7,27.4"/><circle class="cls-3" cx="23.16" cy="23.67" r="0.36"/><circle class="cls-3" cx="28.68" cy="14.95" r="0.36"/><path class="cls-1" d="M14,11.09a1.5,1.5,0,0,0-.73.54,2.24,2.24,0,0,0-.37.78h0l-.3,1h0a1.68,1.68,0,0,1-.14.36.75.75,0,0,1-.08.14.34.34,0,0,1-.11.07l-.18,0a.39.39,0,0,1-.2,0,.5.5,0,0,1-.22-.25,1,1,0,0,1-.09-.45,1.29,1.29,0,0,1,.13-.61.88.88,0,0,1,.38-.36.41.41,0,0,0,.18-.51l-.19-.44a.4.4,0,0,0-.22-.22.37.37,0,0,0-.31,0,1.8,1.8,0,0,0-.87.76,2.29,2.29,0,0,0-.29.74H9.82a.44.44,0,0,0-.29.11.43.43,0,0,0-.11.28v.42a.39.39,0,0,0,.11.28.4.4,0,0,0,.29.12h.56a2,2,0,0,0,.48.95,1.85,1.85,0,0,0,.56.4,1.82,1.82,0,0,0,.7.14,1.77,1.77,0,0,0,.56-.08,1.44,1.44,0,0,0,.7-.46A2.19,2.19,0,0,0,13.8,14h0c0-.13.09-.33.15-.53l.14-.51h0a1.83,1.83,0,0,1,.1-.28.71.71,0,0,1,.2-.26l.12-.06.18,0a.49.49,0,0,1,.23,0,.58.58,0,0,1,.26.29,1.41,1.41,0,0,1,.11.59,1.26,1.26,0,0,1-.19.74,1,1,0,0,1-.53.4.4.4,0,0,0-.23.51l.16.47a.4.4,0,0,0,.49.25,2.06,2.06,0,0,0,1.1-.77,2.41,2.41,0,0,0,.4-1h.6a.38.38,0,0,0,.28-.12.4.4,0,0,0,.12-.28V13a.44.44,0,0,0-.12-.28.41.41,0,0,0-.28-.11h-.62A2.08,2.08,0,0,0,16,11.55a1.73,1.73,0,0,0-.58-.42,1.71,1.71,0,0,0-.71-.15A2,2,0,0,0,14,11.09Z"/><path class="cls-2" d="M6.65,22.42V1.55A.69.69,0,0,1,7.34.86H20a.68.68,0,0,1,.68.69V25.62a.68.68,0,0,1-.68.69H9.78"/><path class="cls-2" d="M8.11,30.09h0a1.5,1.5,0,0,0,1.5-1.5V26.12a2.58,2.58,0,0,1,.66-1.73l1.8-2a1.9,1.9,0,0,0-.15-2.67h0a1.89,1.89,0,0,0-2.61.07L4.11,25"/><path class="cls-2" d="M2,34.61v-12a2.64,2.64,0,0,1,.85-1.94l3.66-3.34"/><rect class="cls-2" x="5.45" y="30.46" width="3.18" height="12.63" transform="translate(-29.73 43.82) rotate(-90)"/><path class="cls-2" d="M11.79,34.65V32.12a1.28,1.28,0,0,1,.51-1l.59-.44a1.79,1.79,0,0,0,.72-1.43V26.31"/><circle class="cls-3" cx="13.67" cy="18.5" r="0.36"/><circle class="cls-3" cx="13.67" cy="8.17" r="0.36"/></svg>