<svg id="Capa_1" data-name="Capa 1" xmlns="http://www.w3.org/2000/svg" xmlns:xlink="http://www.w3.org/1999/xlink" viewBox="0 0 155.91 155.91"><defs><style>.cls-1{fill:url(#Degradado_sin_nombre_59);}.cls-2{fill:url(#Degradado_sin_nombre_59-2);}.cls-3{opacity:0.2;fill:url(#Degradado_sin_nombre_77);}.cls-4,.cls-5{fill:none;}.cls-5{stroke:#fff;stroke-linecap:round;stroke-linejoin:round;stroke-width:2.27px;}</style><linearGradient id="Degradado_sin_nombre_59" y1="77.95" x2="155.91" y2="77.95" gradientUnits="userSpaceOnUse"><stop offset="0" stop-color="#4563ab"/><stop offset="1" stop-color="#3a5399"/></linearGradient><linearGradient id="Degradado_sin_nombre_59-2" x1="143.95" y1="140.18" x2="21.7" y2="24.92" gradientTransform="translate(0 155.91) rotate(-90)" xlink:href="#Degradado_sin_nombre_59"/><linearGradient id="Degradado_sin_nombre_77" x1="21.6" y1="21" x2="125.67" y2="126.18" gradientUnits="userSpaceOnUse"><stop offset="0" stop-color="#fff"/><stop offset="0.01" stop-color="#fff" stop-opacity="0.96"/><stop offset="0.05" stop-color="#fff" stop-opacity="0.78"/><stop offset="0.09" stop-color="#fff" stop-opacity="0.61"/><stop offset="0.14" stop-color="#fff" stop-opacity="0.47"/><stop offset="0.2" stop-color="#fff" stop-opacity="0.34"/><stop offset="0.25" stop-color="#fff" stop-opacity="0.23"/><stop offset="0.32" stop-color="#fff" stop-opacity="0.15"/><stop offset="0.4" stop-color="#fff" stop-opacity="0.08"/><stop offset="0.49" stop-color="#fff" stop-opacity="0.03"/><stop offset="0.63" stop-color="#fff" stop-opacity="0.01"/><stop offset="1" stop-color="#fff" stop-opacity="0"/></linearGradient></defs><rect class="cls-1" width="155.91" height="155.91" rx="14.17"/><rect class="cls-2" x="7.09" y="7.09" width="141.73" height="141.73" rx="7.09" transform="translate(155.91 0) rotate(90)"/><path class="cls-3" d="M141.73,7.09H14.17a7.09,7.09,0,0,0-7.08,7.08V141.73a7.1,7.1,0,0,0,7.08,7.09H141.73a7.1,7.1,0,0,0,7.09-7.09V14.17A7.1,7.1,0,0,0,141.73,7.09ZM148,142.24a5.73,5.73,0,0,1-5.72,5.72H13.66A5.72,5.72,0,0,1,8,142.24V13.66A5.71,5.71,0,0,1,13.66,8H142.24A5.72,5.72,0,0,1,148,13.66Z"/><circle class="cls-4" cx="77.95" cy="77.95" r="76.54"/><path class="cls-5" d="M104.5,58.18l-2.7,50.08A10.72,10.72,0,0,1,91.08,119H64.83a10.72,10.72,0,0,1-10.72-10.72l-2.7-50.08"/><line class="cls-5" x1="78.65" y1="36.93" x2="78.65" y2="44.77"/><line class="cls-5" x1="70.36" y1="49.33" x2="70.36" y2="57.17"/><line class="cls-5" x1="86.31" y1="49.33" x2="86.31" y2="57.17"/><line class="cls-5" x1="65.37" y1="82.52" x2="65.37" y2="102.68"/><line class="cls-5" x1="77.95" y1="82.52" x2="77.95" y2="102.68"/><line class="cls-5" x1="90.54" y1="82.52" x2="90.54" y2="102.68"/><path class="cls-5" d="M57.92,51.43c-4.05,1.81-6.51,4.16-6.51,6.75,0,5.69,11.88,10.3,26.54,10.3s26.55-4.61,26.55-10.3c0-2.59-2.47-4.94-6.51-6.75"/></svg>