<svg xmlns="http://www.w3.org/2000/svg" xmlns:xlink="http://www.w3.org/1999/xlink" viewBox="0 0 55.88 55.88"><defs><style>.cls-1{mask:url(#mask);filter:url(#luminosity-noclip-6);}.cls-10,.cls-2,.cls-28,.cls-4,.cls-6,.cls-8{mix-blend-mode:multiply;}.cls-2{fill:url(#radial-gradient);}.cls-3{mask:url(#mask-2);filter:url(#luminosity-noclip-7);}.cls-4{fill:url(#radial-gradient-2);}.cls-5{mask:url(#mask-3);filter:url(#luminosity-noclip-8);}.cls-6{fill:url(#linear-gradient);}.cls-7{mask:url(#mask-4);filter:url(#luminosity-noclip-9);}.cls-8{fill:url(#linear-gradient-2);}.cls-9{mask:url(#mask-5);filter:url(#luminosity-noclip-10);}.cls-10{fill:url(#linear-gradient-3);}.cls-11{isolation:isolate;}.cls-12{fill:#687a93;}.cls-13{fill:url(#linear-gradient-4);}.cls-14{opacity:0.72;}.cls-15{mask:url(#mask-6);}.cls-16{fill:url(#radial-gradient-3);}.cls-17{mask:url(#mask-7);}.cls-18{fill:url(#radial-gradient-4);}.cls-19{opacity:0.9;}.cls-20{mask:url(#mask-8);}.cls-21{fill:url(#linear-gradient-5);}.cls-22{mix-blend-mode:color-burn;fill:url(#linear-gradient-6);}.cls-23{opacity:0.58;}.cls-24{fill:#e4ebf5;}.cls-25,.cls-30{fill:#fff;}.cls-25{opacity:0.2;}.cls-26{mask:url(#mask-9);}.cls-27{fill:url(#linear-gradient-7);}.cls-29{fill:#d92f2e;}.cls-31{fill:#2f4690;}.cls-32{mask:url(#mask-10);}.cls-33{opacity:0.75;fill:url(#linear-gradient-8);}.cls-34{filter:url(#luminosity-noclip-5);}.cls-35{filter:url(#luminosity-noclip-4);}.cls-36{filter:url(#luminosity-noclip-3);}.cls-37{filter:url(#luminosity-noclip-2);}.cls-38{filter:url(#luminosity-noclip);}</style><filter id="luminosity-noclip" x="0.75" y="-8226.67" width="54.42" height="32766" filterUnits="userSpaceOnUse" color-interpolation-filters="sRGB"><feFlood flood-color="#fff" result="bg"/><feBlend in="SourceGraphic" in2="bg"/></filter><mask id="mask" x="0.75" y="-8226.67" width="54.42" height="32766" maskUnits="userSpaceOnUse"><g class="cls-38"/></mask><radialGradient id="radial-gradient" cx="27.95" cy="28.22" r="27.08" gradientTransform="translate(-0.13)" gradientUnits="userSpaceOnUse"><stop offset="0.97"/><stop offset="0.99" stop-color="#b3b3b3"/><stop offset="1"/></radialGradient><filter id="luminosity-noclip-2" x="0.13" y="-8226.67" width="55.75" height="32766" filterUnits="userSpaceOnUse" color-interpolation-filters="sRGB"><feFlood flood-color="#fff" result="bg"/><feBlend in="SourceGraphic" in2="bg"/></filter><mask id="mask-2" x="0.13" y="-8226.67" width="55.75" height="32766" maskUnits="userSpaceOnUse"><g class="cls-37"/></mask><radialGradient id="radial-gradient-2" cx="28.01" cy="27.94" r="27.74" gradientTransform="translate(-0.13)" gradientUnits="userSpaceOnUse"><stop offset="0.91"/><stop offset="1" stop-color="#b3b3b3"/></radialGradient><filter id="luminosity-noclip-3" x="0" y="-8226.67" width="55.75" height="32766" filterUnits="userSpaceOnUse" color-interpolation-filters="sRGB"><feFlood flood-color="#fff" result="bg"/><feBlend in="SourceGraphic" in2="bg"/></filter><mask id="mask-3" x="0" y="-8226.67" width="55.75" height="32766" maskUnits="userSpaceOnUse"><g class="cls-36"/></mask><linearGradient id="linear-gradient" x1="27.87" y1="55.88" x2="27.87" y2="0.39" gradientUnits="userSpaceOnUse"><stop offset="0"/><stop offset="0.03"/><stop offset="0.28"/><stop offset="0.28" stop-color="#010101"/><stop offset="0.35" stop-color="#3c3c3c"/><stop offset="0.43" stop-color="#6f6f6f"/><stop offset="0.51" stop-color="#9b9b9b"/><stop offset="0.59" stop-color="#bfbfbf"/><stop offset="0.67" stop-color="#dbdbdb"/><stop offset="0.75" stop-color="#efefef"/><stop offset="0.83" stop-color="#fbfbfb"/><stop offset="0.91" stop-color="#fff"/></linearGradient><filter id="luminosity-noclip-4" x="4.23" y="-8226.67" width="45.68" height="32766" filterUnits="userSpaceOnUse" color-interpolation-filters="sRGB"><feFlood flood-color="#fff" result="bg"/><feBlend in="SourceGraphic" in2="bg"/></filter><mask id="mask-4" x="4.23" y="-8226.67" width="45.68" height="32766" maskUnits="userSpaceOnUse"><g class="cls-35"/></mask><linearGradient id="linear-gradient-2" x1="27.07" y1="21.19" x2="27.07" y2="2.59" gradientUnits="userSpaceOnUse"><stop offset="0.31"/><stop offset="0.43" stop-color="#464646"/><stop offset="0.55" stop-color="#878787"/><stop offset="0.67" stop-color="#bbb"/><stop offset="0.76" stop-color="#e0e0e0"/><stop offset="0.84" stop-color="#f7f7f7"/><stop offset="0.89" stop-color="#fff"/></linearGradient><filter id="luminosity-noclip-5" x="3.92" y="-8226.67" width="48.44" height="32766" filterUnits="userSpaceOnUse" color-interpolation-filters="sRGB"><feFlood flood-color="#fff" result="bg"/><feBlend in="SourceGraphic" in2="bg"/></filter><mask id="mask-5" x="3.92" y="-8226.67" width="48.44" height="32766" maskUnits="userSpaceOnUse"><g class="cls-34"/></mask><linearGradient id="linear-gradient-3" x1="28.14" y1="52.18" x2="28.14" y2="1.31" gradientUnits="userSpaceOnUse"><stop offset="0.47"/><stop offset="1" stop-color="#fff"/></linearGradient><linearGradient id="linear-gradient-4" x1="28.01" y1="55.88" x2="28.01" y2="0.4" gradientUnits="userSpaceOnUse"><stop offset="0" stop-color="#bdc0c8"/><stop offset="0.06" stop-color="#c6cad2"/><stop offset="0.2" stop-color="#d5dae3"/><stop offset="0.35" stop-color="#dee3ed"/><stop offset="0.53" stop-color="#e1e6f0"/><stop offset="1" stop-color="#f1f1f4"/></linearGradient><filter id="luminosity-noclip-6" x="0.74" y="1.14" width="54.42" height="54.17" filterUnits="userSpaceOnUse" color-interpolation-filters="sRGB"><feFlood flood-color="#fff" result="bg"/><feBlend in="SourceGraphic" in2="bg"/></filter><mask id="mask-6" x="0.74" y="1.14" width="54.42" height="54.17" maskUnits="userSpaceOnUse"><g class="cls-1"><path class="cls-2" d="M28,1.14A27.08,27.08,0,1,0,55.16,28.22,27.14,27.14,0,0,0,28,1.14Zm.1,53.38a26.31,26.31,0,1,1,26.44-26.3A26.36,26.36,0,0,1,28.05,54.52Z"/></g></mask><radialGradient id="radial-gradient-3" cx="27.95" cy="28.22" r="27.08" gradientTransform="translate(-0.13)" gradientUnits="userSpaceOnUse"><stop offset="0.97" stop-color="#94979c"/><stop offset="0.99" stop-color="#83878c"/><stop offset="1" stop-color="#94979c"/></radialGradient><filter id="luminosity-noclip-7" x="0.13" y="0.2" width="55.75" height="55.49" filterUnits="userSpaceOnUse" color-interpolation-filters="sRGB"><feFlood flood-color="#fff" result="bg"/><feBlend in="SourceGraphic" in2="bg"/></filter><mask id="mask-7" x="0.13" y="0.2" width="55.75" height="55.49" maskUnits="userSpaceOnUse"><g class="cls-3"><path class="cls-4" d="M28,.2A27.74,27.74,0,1,0,55.88,27.94,27.8,27.8,0,0,0,28,.2ZM2.32,27.94A25.79,25.79,0,1,1,28.11,53.6,25.73,25.73,0,0,1,2.32,27.94Z"/></g></mask><radialGradient id="radial-gradient-4" cx="28.01" cy="27.94" r="27.74" gradientTransform="translate(-0.13)" gradientUnits="userSpaceOnUse"><stop offset="0.91" stop-color="#a6a9ad"/><stop offset="1" stop-color="#a6a9ad"/></radialGradient><filter id="luminosity-noclip-8" x="0" y="0.39" width="55.75" height="55.48" filterUnits="userSpaceOnUse" color-interpolation-filters="sRGB"><feFlood flood-color="#fff" result="bg"/><feBlend in="SourceGraphic" in2="bg"/></filter><mask id="mask-8" x="0" y="0.39" width="55.75" height="55.48" maskUnits="userSpaceOnUse"><g class="cls-5"><path class="cls-6" d="M55.75,28.14A27.88,27.88,0,1,1,27.87.39,27.82,27.82,0,0,1,55.75,28.14Z"/></g></mask><linearGradient id="linear-gradient-5" x1="27.87" y1="55.88" x2="27.87" y2="0.39" gradientUnits="userSpaceOnUse"><stop offset="0" stop-color="#bdc0c8"/><stop offset="0.03" stop-color="#c6cad2"/><stop offset="0.1" stop-color="#d5dae3"/><stop offset="0.18" stop-color="#dee3ed"/><stop offset="0.28" stop-color="#e1e6f0"/><stop offset="0.28" stop-color="#e1e6f0"/><stop offset="0.6" stop-color="#edeef3"/><stop offset="0.91" stop-color="#f1f1f4"/></linearGradient><linearGradient id="linear-gradient-6" x1="28.01" y1="55.55" x2="28.01" y2="0.06" gradientUnits="userSpaceOnUse"><stop offset="0" stop-color="#a1a6ae"/><stop offset="0.15" stop-color="#b6b9c0"/><stop offset="0.42" stop-color="#d6d8dc"/><stop offset="0.64" stop-color="#eaeaee"/><stop offset="0.8" stop-color="#f1f1f4"/></linearGradient><filter id="luminosity-noclip-9" x="4.23" y="2.59" width="45.68" height="18.6" filterUnits="userSpaceOnUse" color-interpolation-filters="sRGB"><feFlood flood-color="#fff" result="bg"/><feBlend in="SourceGraphic" in2="bg"/></filter><mask id="mask-9" x="4.23" y="2.59" width="45.68" height="18.6" maskUnits="userSpaceOnUse"><g class="cls-7"><path class="cls-8" d="M48.12,19.12c.52,1.55.21,3.5-2.82.51C36.81,7.78,28.22,8.4,22.88,9.64s-8.79,6.59-10.79,6.28-1.56,2.17-5.44,2.37c-1.71.09-2.3-1.24-2.42-2.76A28.57,28.57,0,0,1,40.44,5.37c3.33,1.94,6.72,4.21,8.2,6.12C52,15.82,47.59,17.57,48.12,19.12Z"/></g></mask><linearGradient id="linear-gradient-7" x1="27.07" y1="21.19" x2="27.07" y2="2.59" gradientUnits="userSpaceOnUse"><stop offset="0.31" stop-color="#fff"/><stop offset="0.89" stop-color="#fff"/></linearGradient><filter id="luminosity-noclip-10" x="3.92" y="1.31" width="48.44" height="50.86" filterUnits="userSpaceOnUse" color-interpolation-filters="sRGB"><feFlood flood-color="#fff" result="bg"/><feBlend in="SourceGraphic" in2="bg"/></filter><mask id="mask-10" x="3.92" y="1.31" width="48.44" height="50.86" maskUnits="userSpaceOnUse"><g class="cls-9"><path class="cls-10" d="M52.37,26.75c0,14-10.85,25.43-24.23,25.43S3.92,40.79,3.92,26.75,14.76,1.31,28.14,1.31,52.37,12.7,52.37,26.75Z"/></g></mask><linearGradient id="linear-gradient-8" x1="28.14" y1="52.18" x2="28.14" y2="1.31" gradientUnits="userSpaceOnUse"><stop offset="0.47" stop-color="#fff"/><stop offset="1" stop-color="#fff"/></linearGradient></defs><g class="cls-11"><g id="Capa_1" data-name="Capa 1"><path class="cls-12" d="M52.21,34.57a22.24,22.24,0,0,1-.84,2.37l0,0-.06.19-.27.61c-.15.33-.3.65-.46,1l-.15.27h0a25.28,25.28,0,0,1-3,4.45h0a24.7,24.7,0,0,1-4.85,4.45h1.52a25.91,25.91,0,0,0,4.43-4.45h0A25.48,25.48,0,0,0,51.29,39h0c.05-.1.1-.18.14-.28.16-.32.3-.64.44-1s.17-.4.24-.61l.08-.19a0,0,0,0,0,0,0A24.32,24.32,0,0,0,53,34.57Zm0,0a22.24,22.24,0,0,1-.84,2.37l0,0-.06.19-.27.61c-.15.33-.3.65-.46,1l-.15.27h0a25.28,25.28,0,0,1-3,4.45h0a24.7,24.7,0,0,1-4.85,4.45h1.52a25.91,25.91,0,0,0,4.43-4.45h0A25.48,25.48,0,0,0,51.29,39h0c.05-.1.1-.18.14-.28.16-.32.3-.64.44-1s.17-.4.24-.61l.08-.19a0,0,0,0,0,0,0A24.32,24.32,0,0,0,53,34.57Zm0,0a22.24,22.24,0,0,1-.84,2.37l0,0-.06.19-.27.61c-.15.33-.3.65-.46,1l-.15.27h0a25.28,25.28,0,0,1-3,4.45h0a24.7,24.7,0,0,1-4.85,4.45h1.52a25.91,25.91,0,0,0,4.43-4.45h0A25.48,25.48,0,0,0,51.29,39h0c.05-.1.1-.18.14-.28.16-.32.3-.64.44-1s.17-.4.24-.61l.08-.19a0,0,0,0,0,0,0A24.32,24.32,0,0,0,53,34.57Zm0,0a22.24,22.24,0,0,1-.84,2.37l0,0-.06.19-.27.61c-.15.33-.3.65-.46,1l-.15.27h0a25.28,25.28,0,0,1-3,4.45h0a24.7,24.7,0,0,1-4.85,4.45h1.52a25.91,25.91,0,0,0,4.43-4.45h0A25.48,25.48,0,0,0,51.29,39h0c.05-.1.1-.18.14-.28.16-.32.3-.64.44-1s.17-.4.24-.61l.08-.19a0,0,0,0,0,0,0A24.32,24.32,0,0,0,53,34.57Zm0,0a22.24,22.24,0,0,1-.84,2.37l0,0-.06.19-.27.61c-.15.33-.3.65-.46,1l-.15.27h0a25.28,25.28,0,0,1-3,4.45h0a24.7,24.7,0,0,1-4.85,4.45h1.52a25.91,25.91,0,0,0,4.43-4.45h0A25.48,25.48,0,0,0,51.29,39h0c.05-.1.1-.18.14-.28.16-.32.3-.64.44-1s.17-.4.24-.61l.08-.19a0,0,0,0,0,0,0A24.32,24.32,0,0,0,53,34.57Zm0,0a22.24,22.24,0,0,1-.84,2.37l0,0-.06.19-.27.61c-.15.33-.3.65-.46,1l-.15.27h0a25.28,25.28,0,0,1-3,4.45h0a24.7,24.7,0,0,1-4.85,4.45h1.52a25.91,25.91,0,0,0,4.43-4.45h0A25.48,25.48,0,0,0,51.29,39h0c.05-.1.1-.18.14-.28.16-.32.3-.64.44-1s.17-.4.24-.61l.08-.19a0,0,0,0,0,0,0A24.32,24.32,0,0,0,53,34.57Zm0,0a22.24,22.24,0,0,1-.84,2.37l0,0-.06.19-.27.61c-.15.33-.3.65-.46,1l-.15.27h0a25.28,25.28,0,0,1-3,4.45h0a24.7,24.7,0,0,1-4.85,4.45h1.52a25.91,25.91,0,0,0,4.43-4.45h0A25.48,25.48,0,0,0,51.29,39h0c.05-.1.1-.18.14-.28.16-.32.3-.64.44-1s.17-.4.24-.61l.08-.19a0,0,0,0,0,0,0A24.32,24.32,0,0,0,53,34.57Zm0,0a22.24,22.24,0,0,1-.84,2.37l0,0-.06.19-.27.61c-.15.33-.3.65-.46,1l-.15.27h0a25.28,25.28,0,0,1-3,4.45h0a24.7,24.7,0,0,1-4.85,4.45h1.52a25.91,25.91,0,0,0,4.43-4.45h0A25.48,25.48,0,0,0,51.29,39h0c.05-.1.1-.18.14-.28.16-.32.3-.64.44-1s.17-.4.24-.61l.08-.19a0,0,0,0,0,0,0A24.32,24.32,0,0,0,53,34.57Zm0,0a22.24,22.24,0,0,1-.84,2.37l0,0-.06.19-.27.61c-.15.33-.3.65-.46,1l-.15.27h0a25.28,25.28,0,0,1-3,4.45h0a24.7,24.7,0,0,1-4.85,4.45h1.52a25.91,25.91,0,0,0,4.43-4.45h0A25.48,25.48,0,0,0,51.29,39h0c.05-.1.1-.18.14-.28.16-.32.3-.64.44-1s.17-.4.24-.61l.08-.19a0,0,0,0,0,0,0A24.32,24.32,0,0,0,53,34.57Zm0,0a22.24,22.24,0,0,1-.84,2.37l0,0-.06.19-.27.61c-.15.33-.3.65-.46,1l-.15.27h0a25.28,25.28,0,0,1-3,4.45h0a24.7,24.7,0,0,1-4.85,4.45h1.52a25.91,25.91,0,0,0,4.43-4.45h0A25.48,25.48,0,0,0,51.29,39h0c.05-.1.1-.18.14-.28.16-.32.3-.64.44-1s.17-.4.24-.61l.08-.19a0,0,0,0,0,0,0A24.32,24.32,0,0,0,53,34.57Zm0,0a22.24,22.24,0,0,1-.84,2.37l0,0-.06.19-.27.61c-.15.33-.3.65-.46,1l-.15.27h0a25.28,25.28,0,0,1-3,4.45h0a24.7,24.7,0,0,1-4.85,4.45h1.52a25.91,25.91,0,0,0,4.43-4.45h0A25.48,25.48,0,0,0,51.29,39h0c.05-.1.1-.18.14-.28.16-.32.3-.64.44-1s.17-.4.24-.61l.08-.19a0,0,0,0,0,0,0A24.32,24.32,0,0,0,53,34.57Zm0,0a22.24,22.24,0,0,1-.84,2.37l0,0-.06.19-.27.61c-.15.33-.3.65-.46,1l-.15.27h0a25.28,25.28,0,0,1-3,4.45h0a24.7,24.7,0,0,1-4.85,4.45h1.52a25.91,25.91,0,0,0,4.43-4.45h0A25.48,25.48,0,0,0,51.29,39h0c.05-.1.1-.18.14-.28.16-.32.3-.64.44-1s.17-.4.24-.61l.08-.19a0,0,0,0,0,0,0A24.32,24.32,0,0,0,53,34.57Zm2.94-8.91s0,0,0,0a25.12,25.12,0,0,0-.67-4.46,24.92,24.92,0,0,0-.86-3c-.11-.3-.22-.6-.34-.9,0,0,0,0,0,0a0,0,0,0,1,0,0L53,16.73a0,0,0,0,0,0,0c-.14-.35-.3-.7-.47-1a24,24,0,0,0-2-3.41h0a24.85,24.85,0,0,0-1.92-2.51l0,0c-.42-.5-.86-1-1.32-1.43l-.13-.12-.38-.37h0a27.12,27.12,0,0,0-4.71-3.61L41.78,4c-.4-.23-.8-.45-1.22-.66h0A27.14,27.14,0,0,0,27.94.27h-.37a28.06,28.06,0,0,0-3.33.24l-.33.06a25.67,25.67,0,0,0-5,1.21c-.43.15-.86.31-1.28.48l-.77.32-.37.18c-.33.14-.64.29-1,.45l-.26.13h0l-.09,0h0c-.23.12-.46.23-.67.36l-.29.17a25.31,25.31,0,0,0-3.9,2.74,2.75,2.75,0,0,0-.26.22c-.35.29-.67.59-1,.91h0a26.94,26.94,0,0,0-3.56,4.13c0,.05-.07.09-.09.13a2,2,0,0,0-.12.19h0q-.66,1-1.23,2a21,21,0,0,0-1,2h0c-.06.1-.1.21-.15.31l-.05.11h0c-.08.19-.16.36-.23.55l0,0v0a6.46,6.46,0,0,0-.28.73,1.22,1.22,0,0,1-.07.17,24.92,24.92,0,0,0-.86,3,10.83,10.83,0,0,0-.24,1.16h0C1,22.89,1,23.41.88,24S.76,25.08.73,25.65c0,0,0,0,0,0s0,.24,0,.37c0,.45,0,.92,0,1.39v.27c0,.81.06,1.61.14,2.4v0c0,.15,0,.29,0,.43a26.55,26.55,0,0,0,.77,4h0c.21.74.44,1.47.71,2.19l.06.18,0,0c0,.07,0,.12.07.19l.24.61a0,0,0,0,1,0,0c.17.42.36.82.55,1.22h0A27.76,27.76,0,0,0,6,43.48a0,0,0,0,1,0,0,27.73,27.73,0,0,0,4.14,4.45,0,0,0,0,0,0,0,26.41,26.41,0,0,0,6.42,4.11l.37.19.34.14.05,0a27.48,27.48,0,0,0,21.31,0l0,0A27.5,27.5,0,0,0,45.77,48h0a26.79,26.79,0,0,0,4.13-4.45h0A26.37,26.37,0,0,0,52.59,39h0c0-.1.1-.19.14-.29.14-.32.29-.64.42-1l.24-.61c0-.07.05-.12.07-.19l0,0c.29-.78.55-1.56.77-2.37h0a26,26,0,0,0,.82-4.44,0,0,0,0,0,0,0c0-.16,0-.31,0-.47s0-.08,0-.12c0-.57.07-1.15.07-1.74v-.34C55.21,26.82,55.19,26.24,55.15,25.66Zm-1.88,1.76v.31c0,.79-.06,1.58-.14,2.36v0a25,25,0,0,1-.91,4.44h0a22.24,22.24,0,0,1-.84,2.37l0,0-.06.19-.27.61c-.15.33-.3.65-.46,1l-.15.27h0a25.28,25.28,0,0,1-3,4.45h0a24.7,24.7,0,0,1-4.85,4.45,0,0,0,0,1,0,0,25.22,25.22,0,0,1-11.87,4.44l-.25,0a23.81,23.81,0,0,1-2.4.12c-.82,0-1.65,0-2.44-.12l-.21,0a25,25,0,0,1-8.86-2.62l-.1-.06A25.29,25.29,0,0,1,13.52,48a0,0,0,0,1,0,0,24.65,24.65,0,0,1-4.84-4.45s0,0,0,0a26.43,26.43,0,0,1-3-4.45h0c-.19-.35-.36-.71-.53-1.07l-.08-.18-.27-.61c0-.07,0-.12-.07-.19l0,0c-.31-.78-.6-1.56-.84-2.37h0A24.94,24.94,0,0,1,3,30.12v0a21,21,0,0,1-.16-2.4v-.27c0-.47,0-.94.05-1.39a2.22,2.22,0,0,1,0-.37s0,0,0,0a23.8,23.8,0,0,1,.66-4.26.66.66,0,0,1,.06-.2c.13-.51.27-1,.45-1.53s.31-.95.49-1.42l.39-.9s0,0,0,0a0,0,0,0,0,0,0L5,17.15c.07-.15.12-.29.19-.42h0a1.92,1.92,0,0,1,.12-.25c.35-.72.73-1.41,1.14-2.09.22-.36.45-.72.69-1.06h0l.2-.28c.17-.26.37-.52.56-.76h0a23.54,23.54,0,0,1,1.71-2c.33-.35.68-.7,1-1l.72-.65a0,0,0,0,1,0,0c.28-.25.58-.49.87-.73h0l.28-.23L13,7.23a22.87,22.87,0,0,1,3.08-1.95l.14-.08.16-.09.11-.05a25.31,25.31,0,0,1,4.28-1.71h0l.26-.07.31-.09a24.09,24.09,0,0,1,3.3-.66l.2,0a26.21,26.21,0,0,1,2.67-.18H28a25.54,25.54,0,0,1,7.21,1h0c.38.12.75.23,1.12.36l.12,0h0l.06,0a25.34,25.34,0,0,1,7.21,4h0a25.1,25.1,0,0,1,4.35,4.45h0c.44.57.86,1.17,1.25,1.79L50,15l.39.7a1,1,0,0,1,.07.15c.16.31.32.61.46.92h0c.09.18.18.36.26.55a0,0,0,0,1,0,0s0,0,0,0c.13.3.26.6.38.9a25.17,25.17,0,0,1,1.67,7.41s0,0,0,0C53.25,26.24,53.27,26.82,53.27,27.42Zm-1.06,7.15a22.24,22.24,0,0,1-.84,2.37l0,0-.06.19-.27.61c-.15.33-.3.65-.46,1l-.15.27h0a25.28,25.28,0,0,1-3,4.45h0a24.7,24.7,0,0,1-4.85,4.45h1.52a25.91,25.91,0,0,0,4.43-4.45h0A25.48,25.48,0,0,0,51.29,39h0c.05-.1.1-.18.14-.28.16-.32.3-.64.44-1s.17-.4.24-.61l.08-.19a0,0,0,0,0,0,0A24.32,24.32,0,0,0,53,34.57Zm0,0a22.24,22.24,0,0,1-.84,2.37l0,0-.06.19-.27.61c-.15.33-.3.65-.46,1l-.15.27h0a25.28,25.28,0,0,1-3,4.45h0a24.7,24.7,0,0,1-4.85,4.45h1.52a25.91,25.91,0,0,0,4.43-4.45h0A25.48,25.48,0,0,0,51.29,39h0c.05-.1.1-.18.14-.28.16-.32.3-.64.44-1s.17-.4.24-.61l.08-.19a0,0,0,0,0,0,0A24.32,24.32,0,0,0,53,34.57Zm0,0a22.24,22.24,0,0,1-.84,2.37l0,0-.06.19-.27.61c-.15.33-.3.65-.46,1l-.15.27h0a25.28,25.28,0,0,1-3,4.45h0a24.7,24.7,0,0,1-4.85,4.45h1.52a25.91,25.91,0,0,0,4.43-4.45h0A25.48,25.48,0,0,0,51.29,39h0c.05-.1.1-.18.14-.28.16-.32.3-.64.44-1s.17-.4.24-.61l.08-.19a0,0,0,0,0,0,0A24.32,24.32,0,0,0,53,34.57Zm0,0a22.24,22.24,0,0,1-.84,2.37l0,0-.06.19-.27.61c-.15.33-.3.65-.46,1l-.15.27h0a25.28,25.28,0,0,1-3,4.45h0a24.7,24.7,0,0,1-4.85,4.45h1.52a25.91,25.91,0,0,0,4.43-4.45h0A25.48,25.48,0,0,0,51.29,39h0c.05-.1.1-.18.14-.28.16-.32.3-.64.44-1s.17-.4.24-.61l.08-.19a0,0,0,0,0,0,0A24.32,24.32,0,0,0,53,34.57Zm0,0a22.24,22.24,0,0,1-.84,2.37l0,0-.06.19-.27.61c-.15.33-.3.65-.46,1l-.15.27h0a25.28,25.28,0,0,1-3,4.45h0a24.7,24.7,0,0,1-4.85,4.45h1.52a25.91,25.91,0,0,0,4.43-4.45h0A25.48,25.48,0,0,0,51.29,39h0c.05-.1.1-.18.14-.28.16-.32.3-.64.44-1s.17-.4.24-.61l.08-.19a0,0,0,0,0,0,0A24.32,24.32,0,0,0,53,34.57Zm0,0a22.24,22.24,0,0,1-.84,2.37l0,0-.06.19-.27.61c-.15.33-.3.65-.46,1l-.15.27h0a25.28,25.28,0,0,1-3,4.45h0a24.7,24.7,0,0,1-4.85,4.45h1.52a25.91,25.91,0,0,0,4.43-4.45h0A25.48,25.48,0,0,0,51.29,39h0c.05-.1.1-.18.14-.28.16-.32.3-.64.44-1s.17-.4.24-.61l.08-.19a0,0,0,0,0,0,0A24.32,24.32,0,0,0,53,34.57Zm0,0a22.24,22.24,0,0,1-.84,2.37l0,0-.06.19-.27.61c-.15.33-.3.65-.46,1l-.15.27h0a25.28,25.28,0,0,1-3,4.45h0a24.7,24.7,0,0,1-4.85,4.45h1.52a25.91,25.91,0,0,0,4.43-4.45h0A25.48,25.48,0,0,0,51.29,39h0c.05-.1.1-.18.14-.28.16-.32.3-.64.44-1s.17-.4.24-.61l.08-.19a0,0,0,0,0,0,0A24.32,24.32,0,0,0,53,34.57Zm0,0a22.24,22.24,0,0,1-.84,2.37l0,0-.06.19-.27.61c-.15.33-.3.65-.46,1l-.15.27h0a25.28,25.28,0,0,1-3,4.45h0a24.7,24.7,0,0,1-4.85,4.45h1.52a25.91,25.91,0,0,0,4.43-4.45h0A25.48,25.48,0,0,0,51.29,39h0c.05-.1.1-.18.14-.28.16-.32.3-.64.44-1s.17-.4.24-.61l.08-.19a0,0,0,0,0,0,0A24.32,24.32,0,0,0,53,34.57Zm0,0a22.24,22.24,0,0,1-.84,2.37l0,0-.06.19-.27.61c-.15.33-.3.65-.46,1l-.15.27h0a25.28,25.28,0,0,1-3,4.45h0a24.7,24.7,0,0,1-4.85,4.45h1.52a25.91,25.91,0,0,0,4.43-4.45h0A25.48,25.48,0,0,0,51.29,39h0c.05-.1.1-.18.14-.28.16-.32.3-.64.44-1s.17-.4.24-.61l.08-.19a0,0,0,0,0,0,0A24.32,24.32,0,0,0,53,34.57Zm0,0a22.24,22.24,0,0,1-.84,2.37l0,0-.06.19-.27.61c-.15.33-.3.65-.46,1l-.15.27h0a25.28,25.28,0,0,1-3,4.45h0a24.7,24.7,0,0,1-4.85,4.45h1.52a25.91,25.91,0,0,0,4.43-4.45h0A25.48,25.48,0,0,0,51.29,39h0c.05-.1.1-.18.14-.28.16-.32.3-.64.44-1s.17-.4.24-.61l.08-.19a0,0,0,0,0,0,0A24.32,24.32,0,0,0,53,34.57Zm0,0a22.24,22.24,0,0,1-.84,2.37l0,0-.06.19-.27.61c-.15.33-.3.65-.46,1l-.15.27h0a25.28,25.28,0,0,1-3,4.45h0a24.7,24.7,0,0,1-4.85,4.45h1.52a25.91,25.91,0,0,0,4.43-4.45h0A25.48,25.48,0,0,0,51.29,39h0c.05-.1.1-.18.14-.28.16-.32.3-.64.44-1s.17-.4.24-.61l.08-.19a0,0,0,0,0,0,0A24.32,24.32,0,0,0,53,34.57Zm1.67-7.29c0-.23,0-.45,0-.67s0-.42,0-.64,0-.2,0-.31H53.2s0,0,0,0c0,.58.07,1.16.07,1.76v.31c0,.79-.06,1.58-.14,2.36v0a25,25,0,0,1-.91,4.44h0a22.24,22.24,0,0,1-.84,2.37l0,0-.06.19-.27.61c-.15.33-.3.65-.46,1l-.15.27h0a25.28,25.28,0,0,1-3,4.45h0a24.7,24.7,0,0,1-4.85,4.45,0,0,0,0,1,0,0,25.22,25.22,0,0,1-11.87,4.44h4.85A25.82,25.82,0,0,0,44.09,48h.17a25.5,25.5,0,0,0,4.36-4.45,0,0,0,0,1,0,0A24.65,24.65,0,0,0,51.35,39h0l.14-.28c.14-.32.29-.64.42-1s.17-.4.24-.61a1.46,1.46,0,0,0,.07-.19l0,0A24.21,24.21,0,0,0,53,34.57h0a23.3,23.3,0,0,0,.78-4.44s0,0,0,0c.06-.54.08-1.07.09-1.62V27.28Z"/><path class="cls-13" d="M55.88,27.81c0,.24,0,.48,0,.72v.12c0,.23,0,.45,0,.67s0,.52,0,.77v0a27,27,0,0,1-.7,4.44h0c-.19.81-.42,1.59-.68,2.37a0,0,0,0,1,0,0l-.06.19c-.07.21-.14.4-.22.61s-.23.63-.36.95l-.14.3h0a27.33,27.33,0,0,1-2.42,4.45h0a27.1,27.1,0,0,1-3.69,4.45,0,0,0,0,1,0,0,27.91,27.91,0,0,1-6,4.44l0,0a28,28,0,0,1-24.26,1.32l-.71-.31c-.69-.31-1.36-.64-2-1l0,0a27.67,27.67,0,0,1-6-4.44h0a26.86,26.86,0,0,1-3.72-4.45h0A28.06,28.06,0,0,1,2.37,39h0l0-.09c-.17-.38-.32-.77-.47-1.16v0c-.06-.19-.14-.38-.2-.59L1.59,37a0,0,0,0,0,0,0A24.6,24.6,0,0,1,.9,34.57h0a26,26,0,0,1-.68-4.44,0,0,0,0,1,0,0c0-.47-.07-.95-.08-1.44v-.12c0-.24,0-.48,0-.72a.49.49,0,0,1,0-.12v-.33c0-.45,0-.9.08-1.33a2.22,2.22,0,0,1,0-.37h0q0-.67.15-1.32c.06-.5.14-1,.24-1.47s.24-1.12.39-1.67A22.43,22.43,0,0,1,1.71,19a.62.62,0,0,1,.07-.19h0c.05-.18.12-.34.18-.52s.18-.46.29-.7h0a.61.61,0,0,1,0-.12l0-.07v0l0,0c.08-.19.16-.36.25-.55h0a.32.32,0,0,1,0-.09c.21-.46.44-.93.69-1.37s.42-.81.66-1.2c.36-.62.75-1.22,1.16-1.79h0c0-.09.11-.17.17-.26s0,0,0-.06A28.69,28.69,0,0,1,9,7.81h0c.33-.31.68-.62,1-.91a2.75,2.75,0,0,1,.26-.22,26.6,26.6,0,0,1,4-2.7l.38-.21.48-.26h0l.3-.15a0,0,0,0,0,0,0,.34.34,0,0,0,.11,0c.3-.14.61-.29.92-.42l.34-.16c.25-.11.5-.22.75-.31h0l.68-.27.12,0,.56-.2h0A26.33,26.33,0,0,1,23.87.71l.41-.06A25.47,25.47,0,0,1,27.57.41H28a27.89,27.89,0,0,1,12.5,2.94,0,0,0,0,1,0,0c.43.21.84.43,1.26.66l.3.18A27.8,27.8,0,0,1,47,7.8h0a27.05,27.05,0,0,1,3.9,4.45h0a27.33,27.33,0,0,1,2.06,3.41c.17.34.34.69.49,1h0c.09.19.17.36.25.55a0,0,0,0,1,0,0s0,0,0,0c.14.3.26.6.37.9a23.52,23.52,0,0,1,.94,3,26.14,26.14,0,0,1,.77,4.46,0,0,0,0,1,0,0c0,.56.09,1.13.1,1.7v.37A.22.22,0,0,1,55.88,27.81Z"/><g class="cls-14"><g class="cls-15"><path class="cls-16" d="M1.51,23.48h0l.37,1c.07-.49.15-1,.25-1.47Zm0,0h0l.37,1c.07-.49.15-1,.25-1.47Zm0,0h0l.37,1c.07-.49.15-1,.25-1.47Zm0,0h0l.37,1c.07-.49.15-1,.25-1.47Zm0,0h0l.37,1c.07-.49.15-1,.25-1.47Zm0,0h0l.37,1c.07-.49.15-1,.25-1.47Zm0,0h0l.37,1c.07-.49.15-1,.25-1.47Zm0,0h0l.37,1c.07-.49.15-1,.25-1.47Zm0,0h0l.37,1c.07-.49.15-1,.25-1.47Zm0,0h0l.37,1c.07-.49.15-1,.25-1.47Zm0,0h0l.37,1c.07-.49.15-1,.25-1.47Zm0,0h0l.37,1c.07-.49.15-1,.25-1.47Zm53.65,4.27v-.08a.45.45,0,0,0,0-.11c0-.64,0-1.27-.11-1.9,0,0,0,0,0,0a26.17,26.17,0,0,0-.8-4.46,25.49,25.49,0,0,0-1-3c-.12-.3-.25-.6-.38-.9,0,0,0,0,0,0a0,0,0,0,0,0,0c-.08-.19-.17-.37-.26-.55h0c-.16-.35-.34-.7-.52-1a27,27,0,0,0-2.13-3.4h0l-.24-.34a27.25,27.25,0,0,0-3.85-4.11h0a27.42,27.42,0,0,0-7.07-4.45s0,0,0,0A27.39,27.39,0,0,0,28,1.14h-.39c-.34,0-.67,0-1,0l-.18,0c-.4,0-.79.05-1.18.09-.62.06-1.24.14-1.84.25a25.72,25.72,0,0,0-4.13,1l-.11,0c-.66.22-1.29.47-1.91.74h0a4.1,4.1,0,0,0-.48.21l-.18.08a2.06,2.06,0,0,0-.26.12c-.47.22-.93.45-1.37.71a24.37,24.37,0,0,0-2.31,1.39l-.33.24h0c-.18.12-.35.25-.53.39l-.33.24c-.44.34-.87.69-1.29,1.07h0c-.16.13-.31.27-.46.41l0,0c-.34.31-.67.63-1,1a.81.81,0,0,0-.16.16,24.38,24.38,0,0,0-1.66,1.87c-.12.13-.23.27-.33.4l-.22.3c-.08.11-.16.21-.23.32H6a.35.35,0,0,0-.08.1,22.55,22.55,0,0,0-1.49,2.3c-.22.35-.41.71-.6,1.08s-.29.55-.42.83l-.07.14h0c-.09.19-.18.37-.26.55l0,0s0,0,0,0c-.13.3-.26.6-.37.9s-.22.57-.32.86c-.25.69-.47,1.38-.65,2.09-.15.52-.27,1.06-.38,1.6-.08.38-.15.76-.21,1.16C1,24.5.93,25.07.88,25.65c0,0,0,0,0,0l0,.37c0,.5-.06,1-.08,1.53a.45.45,0,0,0,0,.11v0c0,.18,0,.35,0,.54,0,.62,0,1.25.08,1.86a0,0,0,0,0,0,0,3,3,0,0,0,0,.43,25.21,25.21,0,0,0,.64,4h0c.2.8.43,1.59.7,2.37l0,0,.06.19.06.16c0,.15.1.29.16.45v0c.17.42.33.83.51,1.23H3a27.5,27.5,0,0,0,2.47,4.45s0,0,0,0a26.3,26.3,0,0,0,3.84,4.45h0a27,27,0,0,0,6.37,4.44l0,0c.26.14.53.27.8.39l.55.26a27.45,27.45,0,0,0,23.12-.65l0,0A27.68,27.68,0,0,0,46.59,48s0,0,0,0a27.1,27.1,0,0,0,3.83-4.45s0,0,0,0A26.8,26.8,0,0,0,52.92,39h0c0-.1.08-.19.13-.29.12-.32.26-.64.37-1s.16-.4.22-.61a1.46,1.46,0,0,0,.07-.19,0,0,0,0,0,0,0,23.85,23.85,0,0,0,.69-2.37h0a26,26,0,0,0,.67-4.44,0,0,0,0,0,0,0l0-.47s0-.08,0-.12c0-.42,0-.85,0-1.27ZM1.7,30.09c-.05-.61-.07-1.24-.07-1.86,0-.19,0-.36,0-.54v-.13c0-.52,0-1,.08-1.53l0-.37h0c0-.37.08-.75.13-1.12h0c.07-.49.15-1,.25-1.47a1.17,1.17,0,0,0,0-.2c0-.2.09-.41.14-.62s.17-.71.27-1,.15-.54.24-.8a2,2,0,0,1,.08-.26q.3-1,.69-1.89.18-.45.39-.9s0,0,0,0a0,0,0,0,1,0,0l.27-.55h0a1.74,1.74,0,0,1,.1-.19c.05-.12.11-.23.17-.35L4.65,16l.1-.17s0,0,0,0l.11-.22v0a26.65,26.65,0,0,1,1.52-2.43c.21-.3.43-.6.66-.89h0c.08-.11.17-.21.26-.32.46-.58.93-1.14,1.44-1.68l.07-.08.1-.11.14-.13c.26-.29.55-.56.83-.83.48-.45,1-.89,1.5-1.3h0a3.5,3.5,0,0,1,.43-.33c.44-.35.89-.68,1.35-1A23.22,23.22,0,0,1,15.71,5a3.6,3.6,0,0,1,.39-.2l.41-.21h0a24.91,24.91,0,0,1,2.92-1.21h0c.58-.19,1.16-.37,1.75-.53h.06a19.85,19.85,0,0,1,2.06-.46l.5-.08.43-.07.5-.07h0a23.2,23.2,0,0,1,2.79-.19h.49a26.5,26.5,0,0,1,8.59,1.42h0a26.4,26.4,0,0,1,7.75,4.23l.06,0,0,0a2.2,2.2,0,0,1,.18.14s0,0,0,0h0v0h0a25.7,25.7,0,0,1,4.3,4.42h0c.22.28.44.57.64.87l.19.27h0l.62.95c.26.42.52.86.76,1.3s.37.7.55,1.06h0c.09.18.17.36.26.55l0,0v0q.21.45.39.9a25.7,25.7,0,0,1,1,3,24.37,24.37,0,0,1,.82,4.46s0,0,0,0c.07.63.1,1.26.12,1.9a.45.45,0,0,1,0,.11v.56c0,.62,0,1.25-.06,1.86a0,0,0,0,1,0,0,25.06,25.06,0,0,1-.7,4.44h0c-.19.8-.43,1.59-.7,2.37a0,0,0,0,0,0,0c0,.07-.05.12-.07.19s-.15.4-.23.61-.26.65-.4,1c0,.09-.09.18-.13.28h0a27.24,27.24,0,0,1-2.57,4.45h0a26.26,26.26,0,0,1-4,4.45h0a26.53,26.53,0,0,1-7,4.44l-.06,0a26.64,26.64,0,0,1-20.78,0l-.05,0-.76-.34-.34-.17a26.19,26.19,0,0,1-6-3.93h0a25.79,25.79,0,0,1-4-4.45,0,0,0,0,1,0,0A26.59,26.59,0,0,1,4,39H4c-.18-.38-.34-.77-.5-1.18,0,0,0,0,0-.07a6.32,6.32,0,0,1-.22-.61c0-.07,0-.12-.07-.19a0,0,0,0,1,0,0,24,24,0,0,1-.72-2.37h0c0-.12-.05-.24-.08-.36a26.26,26.26,0,0,1-.63-4.08Zm-.19-6.61h0l.37,1c.07-.49.15-1,.25-1.47Zm0,0h0l.37,1c.07-.49.15-1,.25-1.47Zm0,0h0l.37,1c.07-.49.15-1,.25-1.47Zm0,0h0l.37,1c.07-.49.15-1,.25-1.47Zm0,0h0l.37,1c.07-.49.15-1,.25-1.47Zm0,0h0l.37,1c.07-.49.15-1,.25-1.47Zm0,0h0l.37,1c.07-.49.15-1,.25-1.47Zm0,0h0l.37,1c.07-.49.15-1,.25-1.47Zm0,0h0l.37,1c.07-.49.15-1,.25-1.47Zm0,0h0l.37,1c.07-.49.15-1,.25-1.47Zm0,0h0l.37,1c.07-.49.15-1,.25-1.47Zm0,0h0l.37,1c.07-.49.15-1,.25-1.47Z"/></g></g><g class="cls-17"><path class="cls-18" d="M7.63,12.26H7.7s0-.06.07-.1Zm0,0H7.7s0-.06.07-.1Zm0,0H7.7s0-.06.07-.1Zm0,0H7.7s0-.06.07-.1Zm0,0H7.7s0-.06.07-.1Zm0,0H7.7s0-.06.07-.1Zm0,0H7.7s0-.06.07-.1Zm0,0H7.7s0-.06.07-.1Zm0,0H7.7s0-.06.07-.1Zm0,0H7.7s0-.06.07-.1Zm0,0H7.7s0-.06.07-.1Zm0,0H7.7s0-.06.07-.1ZM55.87,27.42v-.19c0-.26,0-.52,0-.78s0-.53-.06-.79c0,0,0,0,0,0s0-.27,0-.4c0-.3,0-.6-.1-.91A25.4,25.4,0,0,0,55,21.19a27.2,27.2,0,0,0-.91-3c-.11-.3-.24-.6-.36-.9v0l0,0c-.08-.19-.16-.37-.25-.55h0c-.15-.35-.32-.7-.49-1a25.85,25.85,0,0,0-2-3.41h0a27.9,27.9,0,0,0-3.81-4.45h0a27.68,27.68,0,0,0-6.26-4.45s0,0,0,0A27.85,27.85,0,0,0,28,.2h-.44a30.51,30.51,0,0,0-3.35.25l-.28,0h0a27,27,0,0,0-5,1.22l-1.22.45-.79.32-.38.18c-.34.15-.65.3-1,.46l-.31.16a.39.39,0,0,0-.11.06h0l-.77.41-.19.1A28.13,28.13,0,0,0,8.85,7.8h0a27.63,27.63,0,0,0-3.59,4.13h0L5,12.26H5c-.37.54-.73,1.09-1,1.66-.14.22-.26.43-.38.64l-.05.1c-.1.18-.2.35-.29.54-.24.47-.48.94-.69,1.42a.36.36,0,0,0,0,.09h0c-.06.13-.11.26-.17.4a1,1,0,0,1-.07.15,0,0,0,0,1,0,0s0,0,0,0l0,.07a1.54,1.54,0,0,0-.08.19c-.09.22-.17.44-.25.64s-.09.28-.14.41-.06.17-.09.24c-.26.75-.48,1.52-.68,2.3-.14.55-.26,1.1-.37,1.67s-.16,1-.23,1.48-.1.76-.13,1.13c0,.06,0,.11,0,.18h0c0,.12,0,.24,0,.37s0,.36,0,.54,0,.44,0,.66v.19a.71.71,0,0,0,0,.14v.25c0,.24,0,.48,0,.72v.12c0,.49,0,1,.08,1.44v0a26,26,0,0,0,.72,4.44h0c.19.8.43,1.59.7,2.37a0,0,0,0,0,0,0,1.46,1.46,0,0,1,.07.19c.07.21.13.4.21.59,0,0,0,0,0,0,.12.32.25.65.39,1l.12.28h0a26.66,26.66,0,0,0,2.45,4.45h0a28.64,28.64,0,0,0,3.77,4.45,0,0,0,0,0,0,0,27.79,27.79,0,0,0,6.14,4.44l0,0c.54.3,1.08.56,1.65.82l.66.28a28,28,0,0,0,24-1.1l0,0A27.42,27.42,0,0,0,47.31,48h0a27.16,27.16,0,0,0,3.77-4.45h0A26.76,26.76,0,0,0,53.56,39h0l.14-.3c.13-.32.26-.63.37-.95s.16-.4.23-.61a1.46,1.46,0,0,1,.07-.19,0,0,0,0,1,0,0,23.85,23.85,0,0,0,.69-2.37h0a28.16,28.16,0,0,0,.72-4.44v0c0-.25,0-.51.05-.77s0-.44,0-.67v-.12c0-.24,0-.48,0-.72v-.25A.71.71,0,0,0,55.87,27.42ZM2.41,30.09c0-.12,0-.22,0-.34s0-.44,0-.65,0-.42,0-.63,0-.43,0-.66v-.25a2.72,2.72,0,0,1,0-.28c0-.23,0-.45,0-.67s0-.39,0-.58v0c0-.11,0-.22,0-.33h0a24.15,24.15,0,0,1,.68-3.92h0c0-.19.08-.37.13-.54a.83.83,0,0,0,0-.15l0-.08.06-.22.18-.6c0-.11.07-.2.1-.3l0,0c.07-.22.14-.44.22-.65h0l.36-.91.4-.9s0,0,0,0a0,0,0,0,0,0,0c.07-.17.16-.34.24-.51l0,0h0L5,16.49A23.76,23.76,0,0,1,6.4,14.08l.6-.89c.09-.13.19-.25.29-.38s.26-.36.4-.54h0s0-.06.07-.1h0A.78.78,0,0,1,8,11.94c.37-.45.74-.9,1.14-1.33q.38-.4.78-.81l0,0c.2-.19.39-.39.6-.56h0a18,18,0,0,1,1.63-1.4h0a3.17,3.17,0,0,1,.36-.28c.17-.14.34-.26.5-.38a26.14,26.14,0,0,1,3.07-1.9l.17-.08a2,2,0,0,1,.2-.11l.09,0a24.8,24.8,0,0,1,4.2-1.66s0,0,0,0l.35-.1.29-.09a27.51,27.51,0,0,1,3.3-.65l.21,0a26.21,26.21,0,0,1,2.67-.18h.53a25.86,25.86,0,0,1,7.35,1.06h0c.65.2,1.29.41,1.92.66a.11.11,0,0,1,.08,0,.29.29,0,0,1,.1,0l.07,0,.22.09s0,0,0,0A25.93,25.93,0,0,1,44.07,7.8h0a25.62,25.62,0,0,1,4.44,4.45h0c.36.46.71.93,1,1.43l.45.71c.18.28.34.56.51.85l.23.39c.19.35.38.71.54,1.07a0,0,0,0,1,0,0,5.52,5.52,0,0,1,.26.55l0,0s0,0,0,0c.13.3.27.6.39.9a25.59,25.59,0,0,1,1,3,25.24,25.24,0,0,1,.81,4.46h0a3,3,0,0,0,0,.31c0,.22,0,.43,0,.64s0,.44,0,.67v1.19c0,.55,0,1.08-.09,1.62,0,0,0,0,0,0A23.3,23.3,0,0,1,53,34.56h0a24.21,24.21,0,0,1-.76,2.37l0,0a1.46,1.46,0,0,1-.07.19c-.07.21-.16.4-.24.61s-.28.65-.42,1l-.14.28h0a24.65,24.65,0,0,1-2.72,4.45,0,0,0,0,0,0,0,25.5,25.5,0,0,1-4.36,4.45h0A26,26,0,0,1,36,52.39l-.07,0a26,26,0,0,1-15.56,0l-.07,0a25.31,25.31,0,0,1-3.62-1.45l-.11-.06A25.58,25.58,0,0,1,12,48a0,0,0,0,1,0,0A25.8,25.8,0,0,1,7.6,43.49h0A24.8,24.8,0,0,1,4.85,39h0c-.18-.36-.35-.74-.51-1.11l-.06-.14c-.08-.21-.16-.4-.23-.61A.73.73,0,0,1,4,37l0,0a24.21,24.21,0,0,1-.76-2.37h0a25,25,0,0,1-.79-4.44ZM7.63,12.26H7.7s0-.06.07-.1Zm0,0H7.7s0-.06.07-.1Zm0,0H7.7s0-.06.07-.1Zm0,0H7.7s0-.06.07-.1Zm0,0H7.7s0-.06.07-.1Zm0,0H7.7s0-.06.07-.1Zm0,0H7.7s0-.06.07-.1Zm0,0H7.7s0-.06.07-.1Zm0,0H7.7s0-.06.07-.1Zm0,0H7.7s0-.06.07-.1Zm0,0H7.7s0-.06.07-.1Zm0,0H7.7s0-.06.07-.1Zm46.16,13.4h0a3,3,0,0,0,0,.31C53.82,25.87,53.8,25.77,53.79,25.66Z"/></g><g class="cls-19"><g class="cls-20"><path class="cls-21" d="M55.75,28.14A27.88,27.88,0,1,1,27.87.39,27.82,27.82,0,0,1,55.75,28.14Z"/></g></g><path class="cls-22" d="M55.87,27.42v-.19c0-.26,0-.52,0-.78s0-.53-.06-.79c0,0,0,0,0,0s0-.27,0-.4c0-.3,0-.6-.1-.91s-.07-.53-.11-.79-.06-.34-.08-.51c-.09-.51-.19-1-.32-1.53,0-.1,0-.21-.08-.32A1.29,1.29,0,0,0,55,21a26,26,0,0,0-.86-2.76c-.11-.3-.22-.6-.34-.9,0,0,0,0,0,0a0,0,0,0,0,0,0c-.07-.19-.15-.37-.23-.55a0,0,0,0,0,0,0c-.14-.35-.3-.7-.47-1a26.87,26.87,0,0,0-2-3.41h0a27.16,27.16,0,0,0-3.77-4.45h0a27.54,27.54,0,0,0-6.13-4.45,0,0,0,0,1,0,0A27.88,27.88,0,0,0,28,.06h-.44a31.43,31.43,0,0,0-3.39.25L24,.36a28.19,28.19,0,0,0-4.78,1.13h0c-.47.14-1,.32-1.41.5L17,2.34l-.42.2c-.35.15-.68.32-1,.48l-.22.1h0c-.14.08-.28.14-.4.22h0a0,0,0,0,0,0,0l-.76.41-.06,0a26.7,26.7,0,0,0-5.34,4h0a27.43,27.43,0,0,0-3.79,4.45h0c-.35.51-.69,1-1,1.58a3.47,3.47,0,0,0-.26.45h0a3.24,3.24,0,0,0-.2.36c-.1.17-.18.34-.27.5-.25.48-.49,1-.7,1.47,0,0,0,.05,0,.08h0a2.52,2.52,0,0,0-.12.29l-.12.26a0,0,0,0,1,0,0s0,0,0,0l0,.07a1.17,1.17,0,0,0-.09.24c-.08.2-.17.4-.24.59s-.08.22-.11.34a1.42,1.42,0,0,0-.1.29h0c-.08.2-.14.4-.21.61l-.18.61c-.07.24-.14.48-.2.73L1,21l-.06.24c-.07.27-.13.55-.2.83s-.11.56-.16.84c0,.09,0,.18,0,.27s0,.22-.05.34v.05c0,.16,0,.31-.08.47s0,.12,0,.19a1.1,1.1,0,0,1,0,.18c0,.3-.07.6-.1.9a.81.81,0,0,1,0,.16v0c0,.06,0,.11,0,.18h0c0,.12,0,.24,0,.37s0,.36,0,.54,0,.44,0,.66v.19a.71.71,0,0,0,0,.14v.25c0,.24,0,.48,0,.72,0,.52,0,1,.1,1.56,0,0,0,0,0,0A26,26,0,0,0,1,34.56H1c.2.81.44,1.59.71,2.37l0,0,.06.19c.07.21.14.4.22.6H2c.11.29.23.58.35.86.06.13.11.26.18.39h0A26.9,26.9,0,0,0,5,43.48H5a27.59,27.59,0,0,0,3.83,4.45h0a27.9,27.9,0,0,0,6.25,4.44l0,0c.46.24.92.47,1.4.68l.62.28a28.06,28.06,0,0,0,23.74-1l0,0A27.34,27.34,0,0,0,47.16,48h0A27,27,0,0,0,51,43.49h0A26.2,26.2,0,0,0,53.5,39h0c0-.1.09-.19.13-.3.13-.32.27-.63.39-.95s.15-.4.22-.61a1.46,1.46,0,0,1,.07-.19,0,0,0,0,1,0,0A24,24,0,0,0,55,34.57h0a26,26,0,0,0,.73-4.44s0,0,0,0c0-.52.09-1,.1-1.56,0-.24,0-.48,0-.72v-.25A.71.71,0,0,0,55.87,27.42ZM2.42,30.09l0-.34c0-.21,0-.44,0-.65s0-.42,0-.63,0-.43,0-.66v-.25a2.72,2.72,0,0,1,0-.28c0-.23,0-.45,0-.67s0-.39,0-.58v0c0-.11,0-.22,0-.33h0a23.86,23.86,0,0,1,.64-3.9c0-.14.06-.27.1-.4v0a.5.5,0,0,1,0-.13c0-.16.09-.32.14-.47a5.58,5.58,0,0,1,.18-.58c.09-.33.2-.66.31-1l0-.09h0l.33-.83c.12-.3.26-.6.39-.9,0,0,0,0,0,0l0,0a3.94,3.94,0,0,1,.26-.55h0a0,0,0,0,1,0,0h0a1.74,1.74,0,0,1,.1-.19A24.76,24.76,0,0,1,6.38,14s0,0,0,0c.18-.28.37-.56.56-.82l.32-.42h0c.09-.14.19-.27.29-.4v0l0,0h0l.25-.32c.28-.37.59-.73.9-1.08a.87.87,0,0,0,.09-.11l0,0c.48-.52,1-1,1.48-1.51s.83-.77,1.26-1.13L12,7.81h0a19,19,0,0,1,1.78-1.31A24.94,24.94,0,0,1,16,5.17l.21-.12c.09-.06.18-.09.27-.14s0,0,.07,0A24.38,24.38,0,0,1,20.3,3.35h0l.81-.24L21.35,3c.62-.16,1.25-.3,1.9-.42l.15,0h0c.38-.08.75-.13,1.13-.18l.32,0a22.16,22.16,0,0,1,2.71-.19h.53a25.66,25.66,0,0,1,7.8,1.19h0a25.28,25.28,0,0,1,3.29,1.3l.13.06h0l.25.13.15.07A26.13,26.13,0,0,1,44.24,7.8h0a25.45,25.45,0,0,1,4.35,4.45h0c.34.43.67.88,1,1.35l.43.66c.17.28.35.58.51.87,0,0,0,0,0,0,.1.17.2.32.29.48.18.35.37.71.53,1.07h0a5.6,5.6,0,0,1,.27.55l0,0v0l.39.9a25.49,25.49,0,0,1,1,3,24.33,24.33,0,0,1,.78,4.46h0c0,.11,0,.21,0,.31s0,.43,0,.64,0,.44,0,.67v1.19q0,.83-.09,1.62a0,0,0,0,1,0,0,24.85,24.85,0,0,1-.8,4.44h0a24.32,24.32,0,0,1-.78,2.37,0,0,0,0,1,0,0l-.08.19c-.07.21-.16.4-.24.61s-.28.65-.44,1c0,.1-.09.18-.14.28h0a25.48,25.48,0,0,1-2.77,4.45h0a25.91,25.91,0,0,1-4.43,4.45h0a25.82,25.82,0,0,1-8.55,4.44l-.07,0a26.12,26.12,0,0,1-14.73,0l-.07,0a24.55,24.55,0,0,1-4.05-1.6l-.09,0A24.8,24.8,0,0,1,12.13,48h0A25.16,25.16,0,0,1,7.7,43.49h0A25,25,0,0,1,4.91,39h0q-.29-.56-.51-1.11a.53.53,0,0,1-.06-.14c-.09-.21-.17-.4-.25-.61A1.46,1.46,0,0,0,4,37a0,0,0,0,1,0,0,24.32,24.32,0,0,1-.78-2.37h0a26,26,0,0,1-.81-4.44Zm51.37,0a0,0,0,0,1,0,0,24.85,24.85,0,0,1-.8,4.44h0a24.32,24.32,0,0,1-.78,2.37,0,0,0,0,1,0,0l-.08.19c-.07.21-.16.4-.24.61s-.28.65-.44,1c0,.1-.09.18-.14.28h0a25.48,25.48,0,0,1-2.77,4.45h0a25.91,25.91,0,0,1-4.43,4.45h.17a25.5,25.5,0,0,0,4.36-4.45,0,0,0,0,1,0,0A24.65,24.65,0,0,0,51.35,39h0l.14-.28c.14-.32.29-.64.42-1s.17-.4.24-.61a1.46,1.46,0,0,0,.07-.19l0,0A24.21,24.21,0,0,0,53,34.57h0a23.3,23.3,0,0,0,.78-4.44s0,0,0,0c.06-.54.08-1.07.09-1.62Q53.86,29.3,53.79,30.09Z"/><g class="cls-23"><path class="cls-24" d="M48.05,16.94c.5,1.49.2,3.36-2.69.49C37.3,6,29.14,6.63,24.06,7.83s-8.37,6.34-10.25,6S12.31,16,8.63,16.15C7,16.23,6.45,15,6.33,13.49A27,27,0,0,1,40.75,3.72c3.17,1.87,6.39,4.06,7.8,5.88C51.73,13.77,47.55,15.46,48.05,16.94Z"/><path class="cls-25" d="M48.31,18.66c.5,1.48.2,3.37-2.69.49C37.56,7.76,29.4,8.35,24.32,9.54S16,15.88,14.07,15.59s-1.49,2.08-5.18,2.28c-1.63.09-2.18-1.2-2.3-2.66A27,27,0,0,1,41,5.44c3.18,1.86,6.4,4.05,7.8,5.89C52,15.49,47.81,17.17,48.31,18.66Z"/><path class="cls-25" d="M48.75,19.44C49.27,21,49,23,45.92,20c-8.51-12-17.13-11.4-22.48-10.14s-8.82,6.69-10.82,6.38-1.57,2.19-5.46,2.4c-1.72.09-2.31-1.26-2.42-2.81A28.48,28.48,0,0,1,41.05,5.49c3.34,2,6.74,4.28,8.22,6.21C52.64,16.09,48.23,17.87,48.75,19.44Z"/><g class="cls-26"><path class="cls-27" d="M48.12,19.12c.52,1.55.21,3.5-2.82.51C36.81,7.78,28.22,8.4,22.88,9.64s-8.79,6.59-10.79,6.28-1.56,2.17-5.44,2.37c-1.71.09-2.3-1.24-2.42-2.76A28.57,28.57,0,0,1,40.44,5.37c3.33,1.94,6.72,4.21,8.2,6.12C52,15.82,47.59,17.57,48.12,19.12Z"/></g></g><g class="cls-28"><path class="cls-29" d="M55.06,21.19H.94L1,21l0-.12c.06-.25.13-.49.2-.73l.18-.61c.07-.21.13-.41.21-.61h0c0-.1.06-.2.67-.65l-.2-.55,0,0h0a1.17,1.17,0,0,1,.09-.24l0-.07s0,0,0,0a0,0,0,0,0,0,0L2.33,17a2.52,2.52,0,0,1,.12-.29h51.1a0,0,0,0,1,0,0c.08.18.16.36.23.55a0,0,0,0,1,0,0s0,0,0,0c.12.3.23.6.34.9A26,26,0,0,1,55,21,1.29,1.29,0,0,1,55.06,21.19Z"/><path class="cls-29" d="M51.09,12.27H4.92A27.43,27.43,0,0,1,8.71,7.81H47.32a27.16,27.16,0,0,1,3.77,4.45Z"/><path class="cls-29" d="M41.17,3.35H14.88a0,0,0,0,1,0,0h0c.12-.08.26-.14.4-.22h0l.22-.1c.33-.16.66-.33,1-.48l.42-.2L17.76,2c.46-.18.94-.36,1.41-.5h0A28.19,28.19,0,0,1,24,.36l.1-.36.11.32A31.43,31.43,0,0,1,27.57.07H28A27.88,27.88,0,0,1,41.16,3.34,0,0,0,0,0,41.17,3.35Z"/><path class="cls-29" d="M55.88,27.56v.25c0,.24,0,.48,0,.72v.12c0,.23,0,.45,0,.67s0,.52,0,.77v0H.22a0,0,0,0,1,0,0c0-.47-.07-.95-.08-1.44v-.12c0-.24,0-.48,0-.72v-.25a.71.71,0,0,1,0-.14v-.19c0-.22,0-.44,0-.66s0-.36,0-.54,0-.25,0-.37H55.78s0,0,0,0c0,.26,0,.53.06.79s0,.52,0,.78v.19A.71.71,0,0,1,55.88,27.56Z"/><path class="cls-29" d="M55.11,34.56h0c-.19.81-.42,1.59-.68,2.37a0,0,0,0,1,0,0l-.06.19c-.07.21-.14.4-.22.61s-.23.63-.36.95l-.14.3H2.36l0-.09c-.17-.38-.32-.77-.47-1.16v0c-.06-.19-.14-.38-.2-.59L1.59,37a0,0,0,0,0,0,0A24.6,24.6,0,0,1,.9,34.57H55.11Z"/><path class="cls-29" d="M51.22,43.48h0a27.1,27.1,0,0,1-3.69,4.45,0,0,0,0,1,0,0h-39a26.86,26.86,0,0,1-3.72-4.45H51.22Z"/><path class="cls-29" d="M41.54,52.39l0,0a28,28,0,0,1-24.26,1.32l-.71-.31c-.69-.31-1.36-.64-2-1l0,0Z"/><path class="cls-30" d="M53.56,16.73H2.45s0,0,0-.08c.21-.5.45-1,.7-1.47.09-.16.17-.33.27-.5a3.24,3.24,0,0,1,.2-.36h0l.18-.67.08.22c.3-.54.64-1.07,1-1.58H51.09a26.87,26.87,0,0,1,2,3.41c.17.34.33.69.47,1A0,0,0,0,1,53.56,16.73Z"/><path class="cls-30" d="M47.32,7.81H8.72a26.7,26.7,0,0,1,5.34-4l-.05,0h.11l.76-.41a0,0,0,0,1,0,0H41.16a0,0,0,0,0,0,0A27.54,27.54,0,0,1,47.3,7.8Z"/><path class="cls-30" d="M55.78,25.65s0,0,0,0H.22c0-.07,0-.12,0-.18v0a.81.81,0,0,0,0-.16c0-.3.06-.6.1-.9l-.24.17.37-1v-.05c0-.12,0-.23.05-.34s0-.18,0-.27c.05-.28.11-.57.16-.84s.13-.56.2-.83H55.06c0,.11.06.22.08.32.13.51.23,1,.32,1.53,0,.17,0,.34.08.51s.08.53.11.79.07.61.1.91C55.77,25.38,55.77,25.51,55.78,25.65Z"/><path class="cls-30" d="M55.81,30.09v0a27,27,0,0,1-.7,4.44H.9a26,26,0,0,1-.68-4.44,0,0,0,0,1,0,0Z"/><path class="cls-30" d="M53.64,39h0a27.33,27.33,0,0,1-2.42,4.45H4.78A28.06,28.06,0,0,1,2.37,39H53.64Z"/><path class="cls-30" d="M47.52,47.94a0,0,0,0,1,0,0,27.91,27.91,0,0,1-6,4.44l0,0h-27l0,0a27.67,27.67,0,0,1-6-4.44h39Z"/><path class="cls-31" d="M27.57.07V26H.2c0-.13,0-.25,0-.37h0c0-.07,0-.12,0-.18v0a.81.81,0,0,0,0-.16c0-.3.06-.6.1-.9l-.24.17.37-1v-.05c0-.12,0-.23.05-.34s0-.18,0-.27c.05-.28.11-.57.16-.84s.13-.56.2-.83L1,21l0-.12c.06-.25.13-.49.2-.73l.18-.61c.07-.21.13-.41.21-.61h0a1.42,1.42,0,0,1,.1-.29L2,17.73l.06-.06,0,0a1.17,1.17,0,0,1,.09-.24l0-.07s0,0,0,0a0,0,0,0,0,0,0L2.33,17a2.52,2.52,0,0,1,.12-.29h0s0,0,0-.08c.21-.5.45-1,.7-1.47.09-.16.17-.33.27-.5a3.24,3.24,0,0,1,.2-.36h0l.18-.67.08.22c.3-.54.64-1.07,1-1.58h0A27.43,27.43,0,0,1,8.71,7.81h0a26.7,26.7,0,0,1,5.34-4l-.05,0h.11l.76-.41a0,0,0,0,1,0,0h0c.12-.08.26-.14.4-.22h0l.22-.1c.33-.16.66-.33,1-.48l.42-.2L17.76,2c.46-.18.94-.36,1.41-.5h0A28.19,28.19,0,0,1,24,.36l.1-.36.11.32A31.43,31.43,0,0,1,27.57.07Z"/><polygon class="cls-30" points="21.79 4.39 22.16 5.44 21.27 4.78 21.27 4.77 21.27 4.78 20.38 5.44 20.75 4.39 20.77 4.38 20.75 4.38 19.84 3.76 20.94 3.76 21.25 2.71 21.58 3.76 21.58 3.76 21.58 3.76 22.7 3.76 21.78 4.38 21.78 4.38 21.79 4.39"/><polygon class="cls-30" points="21.79 9.84 22.16 10.89 21.27 10.23 21.27 10.23 21.27 10.23 20.38 10.89 20.75 9.84 20.77 9.83 20.75 9.83 19.84 9.21 20.94 9.21 21.25 8.17 21.58 9.21 21.58 9.22 21.58 9.21 22.7 9.21 21.78 9.83 21.78 9.83 21.79 9.84"/><polygon class="cls-30" points="21.79 15.3 22.16 16.34 21.27 15.68 21.27 15.68 21.27 15.68 20.38 16.34 20.75 15.3 20.77 15.29 20.75 15.29 19.84 14.67 20.94 14.67 21.25 13.62 21.58 14.67 21.58 14.68 21.58 14.67 22.7 14.67 21.78 15.29 21.78 15.29 21.79 15.3"/><polygon class="cls-30" points="21.79 20.75 22.16 21.8 21.27 21.14 21.27 21.14 21.27 21.14 20.38 21.8 20.75 20.75 20.77 20.74 20.75 20.74 19.84 20.13 20.94 20.13 21.25 19.07 21.58 20.13 21.58 20.13 21.58 20.13 22.7 20.13 21.78 20.74 21.78 20.74 21.79 20.75"/><path class="cls-30" d="M16.26,5.2l.08.23-.22-.15-.05,0L16,5.17,15.71,5l-.26-.19h0l-.89.65.07-.2.28-.76,0-.09h0L14.32,4l-.06,0-.1-.07-.1-.06-.05,0h1.1l.07-.26h0l0-.1h0l0,0h0V3.28l.05-.16h0l.22-.1,0,.1,0,.09,0,.08v0h0l.13.41h1.11L16,4.38h0l0,0,.12.35.09.28,0,.11Z"/><polygon class="cls-30" points="15.96 9.84 16.34 10.89 15.44 10.23 15.44 10.23 15.44 10.23 14.55 10.89 14.92 9.84 14.93 9.83 14.93 9.83 14.01 9.21 15.11 9.21 15.42 8.17 15.76 9.21 15.76 9.22 15.76 9.21 16.87 9.21 15.96 9.83 15.95 9.83 15.96 9.84"/><polygon class="cls-30" points="15.96 15.3 16.34 16.34 15.44 15.68 15.44 15.68 15.44 15.68 14.55 16.34 14.92 15.3 14.93 15.29 14.93 15.29 14.01 14.67 15.11 14.67 15.42 13.62 15.76 14.67 15.76 14.68 15.76 14.67 16.87 14.67 15.96 15.29 15.95 15.29 15.96 15.3"/><polygon class="cls-30" points="15.96 20.75 16.34 21.8 15.44 21.14 15.44 21.14 15.44 21.14 14.55 21.8 14.92 20.75 14.93 20.74 14.93 20.74 14.01 20.13 15.11 20.13 15.42 19.07 15.76 20.13 15.76 20.13 15.76 20.13 16.87 20.13 15.96 20.74 15.95 20.74 15.96 20.75"/><polygon class="cls-30" points="10.13 9.84 10.51 10.89 9.61 10.23 9.61 10.23 9.61 10.23 8.72 10.89 9.09 9.84 9.1 9.83 9.1 9.83 8.18 9.21 9.29 9.21 9.59 8.17 9.93 9.21 9.93 9.22 9.93 9.21 11.05 9.21 10.13 9.83 10.12 9.83 10.13 9.84"/><polygon class="cls-30" points="10.13 15.3 10.51 16.34 9.61 15.68 9.61 15.68 9.61 15.68 8.72 16.34 9.09 15.3 9.1 15.29 9.1 15.29 8.18 14.67 9.29 14.67 9.59 13.62 9.93 14.67 9.93 14.68 9.93 14.67 11.05 14.67 10.13 15.29 10.12 15.29 10.13 15.3"/><polygon class="cls-30" points="10.13 20.75 10.51 21.8 9.61 21.14 9.61 21.14 9.61 21.14 8.72 21.8 9.09 20.75 9.1 20.74 9.1 20.74 8.18 20.13 9.29 20.13 9.59 19.07 9.93 20.13 9.93 20.13 9.93 20.13 11.05 20.13 10.13 20.74 10.12 20.74 10.13 20.75"/><path class="cls-30" d="M4.65,16l.12.33-.21-.16-.68-.5-.08.07-.74.54h0l-.07,0,.37-1h0l0,0-.09,0-.05,0c.09-.16.17-.33.27-.5h.09l0-.1.08-.26h0l.18-.67.08.22,0,.08,0,.13.08.22.13.39H5.32l-.92.62h0Z"/><polygon class="cls-30" points="4.4 20.75 4.78 21.8 3.88 21.14 3.88 21.14 3.88 21.14 2.99 21.8 3.36 20.75 3.37 20.74 3.36 20.74 2.45 20.13 3.55 20.13 3.85 19.07 4.2 20.13 4.2 20.13 4.2 20.13 5.32 20.13 4.4 20.74 4.39 20.74 4.4 20.75"/><polygon class="cls-30" points="24.62 7.11 24.99 8.15 24.09 7.5 24.09 7.5 24.09 7.5 23.2 8.15 23.58 7.11 23.59 7.1 23.58 7.1 22.66 6.49 23.77 6.49 24.07 5.44 24.41 6.49 24.41 6.49 24.41 6.49 25.53 6.49 24.61 7.1 24.61 7.1 24.62 7.11"/><polygon class="cls-30" points="24.62 12.57 24.99 13.61 24.09 12.95 24.09 12.95 24.09 12.95 23.2 13.61 23.58 12.57 23.59 12.56 23.58 12.56 22.66 11.94 23.77 11.94 24.07 10.89 24.41 11.94 24.41 11.94 24.41 11.94 25.53 11.94 24.61 12.56 24.61 12.56 24.62 12.57"/><polygon class="cls-30" points="24.62 18.03 24.99 19.07 24.09 18.42 24.09 18.41 24.09 18.42 23.2 19.07 23.58 18.03 23.59 18.02 23.58 18.02 22.66 17.4 23.77 17.41 24.07 16.35 24.41 17.4 24.41 17.41 24.41 17.41 25.53 17.4 24.61 18.02 24.61 18.02 24.62 18.03"/><polygon class="cls-30" points="24.62 23.49 24.99 24.53 24.09 23.88 24.09 23.88 24.09 23.88 23.2 24.53 23.58 23.49 23.59 23.48 23.58 23.48 22.66 22.87 23.77 22.87 24.07 21.81 24.41 22.87 24.41 22.88 24.41 22.87 25.53 22.87 24.61 23.48 24.61 23.48 24.62 23.49"/><polygon class="cls-30" points="25.54 1.06 25.2 1.28 25.1 1.35 24.61 1.67 24.62 1.68 24.77 2.12 24.78 2.12 24.86 2.35 24.9 2.47 24.9 2.49 24.99 2.73 24.7 2.52 24.69 2.5 24.54 2.4 24.27 2.19 24.1 2.07 24.09 2.07 23.84 2.26 23.41 2.58 23.4 2.58 23.2 2.73 23.25 2.61 23.34 2.34 23.58 1.68 23.59 1.67 23.58 1.67 23.5 1.63 23.36 1.53 22.66 1.06 23.77 1.06 23.87 0.71 23.91 0.57 23.93 0.49 23.93 0.49 23.97 0.36 24.07 0 24.18 0.32 24.22 0.45 24.24 0.52 24.28 0.65 24.41 1.06 25.54 1.06"/><polygon class="cls-30" points="18.92 7.11 19.29 8.15 18.4 7.5 18.4 7.5 18.4 7.5 17.51 8.15 17.88 7.11 17.89 7.1 17.88 7.1 16.96 6.49 18.07 6.49 18.37 5.44 18.71 6.49 18.71 6.49 18.71 6.49 19.83 6.49 18.91 7.1 18.91 7.1 18.92 7.11"/><polygon class="cls-30" points="18.92 12.57 19.29 13.61 18.4 12.95 18.4 12.95 18.4 12.95 17.51 13.61 17.88 12.57 17.89 12.56 17.88 12.56 16.96 11.94 18.07 11.94 18.37 10.89 18.71 11.94 18.71 11.94 18.71 11.94 19.83 11.94 18.91 12.56 18.91 12.56 18.92 12.57"/><polygon class="cls-30" points="18.92 18.03 19.29 19.07 18.4 18.42 18.4 18.41 18.4 18.42 17.51 19.07 17.88 18.03 17.89 18.02 17.88 18.02 16.96 17.4 18.07 17.41 18.37 16.35 18.71 17.4 18.71 17.41 18.71 17.41 19.83 17.4 18.91 18.02 18.91 18.02 18.92 18.03"/><polygon class="cls-30" points="18.92 23.49 19.29 24.53 18.4 23.88 18.4 23.88 18.4 23.88 17.51 24.53 17.88 23.49 17.89 23.48 17.88 23.48 16.96 22.87 18.07 22.87 18.37 21.81 18.71 22.87 18.71 22.88 18.71 22.87 19.83 22.87 18.91 23.48 18.91 23.48 18.92 23.49"/><path class="cls-30" d="M19.29,2.73l-.17-.13-.69-.51,0,0-.09.06-.81.6.12-.33h0l0-.14,0-.1L17.76,2c.46-.18.94-.36,1.41-.5l-.26.17h0v0l0,.07,0,.11h0l.24.67Z"/><polygon class="cls-30" points="12.99 7.11 13.36 8.15 12.47 7.5 12.47 7.5 12.47 7.5 11.58 8.15 11.95 7.11 11.96 7.1 11.96 7.1 11.04 6.49 12.14 6.49 12.45 5.44 12.79 6.49 12.79 6.49 12.79 6.49 13.91 6.49 12.99 7.1 12.98 7.1 12.99 7.11"/><polygon class="cls-30" points="12.99 12.57 13.36 13.61 12.47 12.95 12.47 12.95 12.47 12.95 11.58 13.61 11.95 12.57 11.96 12.56 11.96 12.56 11.04 11.94 12.14 11.94 12.45 10.89 12.79 11.94 12.79 11.94 12.79 11.94 13.91 11.94 12.99 12.56 12.98 12.56 12.99 12.57"/><polygon class="cls-30" points="12.99 18.03 13.36 19.07 12.47 18.42 12.47 18.41 12.47 18.42 11.58 19.07 11.95 18.03 11.96 18.02 11.96 18.02 11.04 17.4 12.14 17.41 12.45 16.35 12.79 17.4 12.79 17.41 12.79 17.41 13.91 17.4 12.99 18.02 12.98 18.02 12.99 18.03"/><polygon class="cls-30" points="12.99 23.49 13.36 24.53 12.47 23.88 12.47 23.88 12.47 23.88 11.58 24.53 11.95 23.49 11.96 23.48 11.96 23.48 11.04 22.87 12.14 22.87 12.45 21.81 12.79 22.87 12.79 22.88 12.79 22.87 13.91 22.87 12.99 23.48 12.98 23.48 12.99 23.49"/><polygon class="cls-30" points="7.2 12.57 7.57 13.61 6.68 12.95 6.68 12.95 6.67 12.95 5.78 13.61 6.15 12.57 6.17 12.56 6.16 12.56 5.24 11.94 6.35 11.94 6.65 10.89 6.99 11.94 6.99 11.94 6.99 11.94 8.11 11.94 7.19 12.56 7.19 12.56 7.2 12.57"/><polygon class="cls-30" points="7.2 18.03 7.57 19.07 6.68 18.42 6.68 18.41 6.67 18.42 5.78 19.07 6.15 18.03 6.17 18.02 6.16 18.02 5.24 17.4 6.35 17.41 6.65 16.35 6.99 17.4 6.99 17.41 6.99 17.41 8.11 17.4 7.19 18.02 7.19 18.02 7.2 18.03"/><polygon class="cls-30" points="7.2 23.49 7.57 24.53 6.68 23.88 6.68 23.88 6.67 23.88 5.78 24.53 6.15 23.49 6.17 23.48 6.16 23.48 5.24 22.87 6.35 22.87 6.65 21.81 6.99 22.87 6.99 22.88 6.99 22.87 8.11 22.87 7.19 23.48 7.19 23.48 7.2 23.49"/><path class="cls-30" d="M1.78,18.76l.11.31L1.71,19l-.06-.06h0a1.42,1.42,0,0,1,.1-.29l0,.07,0,.11Z"/><path class="cls-30" d="M2.44,17.41l-.19.12h0l-.12.06-.06,0a1.17,1.17,0,0,1,.09-.24Z"/><path class="cls-30" d="M1.51,23.48h0l.37,1h0L1.09,24,1,23.88H1L.88,24l-.48.37h0l0,0-.24.17.37-1v0h0c0-.12,0-.23.05-.34s0-.18,0-.27H.67L1,21.81l.18.54h0l.14.44,0,.07H2.44l-.3.2Z"/></g><g class="cls-32"><path class="cls-33" d="M52.37,26.75c0,14-10.85,25.43-24.23,25.43S3.92,40.79,3.92,26.75,14.76,1.31,28.14,1.31,52.37,12.7,52.37,26.75Z"/></g></g></g></svg>