<?xml version="1.0" encoding="utf-8"?>
<!-- Generator: Adobe Illustrator 26.0.1, SVG Export Plug-In . SVG Version: 6.00 Build 0)  -->
<svg version="1.1" id="Capa_1" xmlns="http://www.w3.org/2000/svg" xmlns:xlink="http://www.w3.org/1999/xlink" x="0px" y="0px"
	 viewBox="0 0 60 60" style="enable-background:new 0 0 60 60;" xml:space="preserve">
<style type="text/css">
	.st0{fill:#FFFFFF;}
</style>
<g>
	<g id="Capa_1_00000083048098468690905180000005960317536027559567_">
		<path class="st0" d="M34.8,29.7L27,25.4c-0.3-0.2-1.5,0-1.5,0.4v8.4c0,0.4,1.1,0.6,1.5,0.4l8.3-4.1C35.6,30.4,35.2,29.9,34.8,29.7
			z M30,0C13.4,0,0,13.4,0,30s13.4,30,30,30s30-13.4,30-30l0,0C60,13.4,46.6,0,30,0z M46.1,34.2c0,4-3.2,7.2-7.2,7.2H20.4
			c-4,0-7.2-3.2-7.2-7.2c0,0,0,0,0,0v-8.6c0-4,3.2-7.2,7.2-7.2c0,0,0,0,0,0h18.4c4,0,7.2,3.2,7.2,7.2V34.2z"/>
	</g>
</g>
</svg>
